<?xml version="1.0" encoding="utf-8"?>
<!-- Generator: Adobe Illustrator 16.0.3, SVG Export Plug-In . SVG Version: 6.00 Build 0)  -->
<!DOCTYPE svg PUBLIC "-//W3C//DTD SVG 1.1//EN" "http://www.w3.org/Graphics/SVG/1.1/DTD/svg11.dtd" [
	<!ENTITY ns_flows "http://ns.adobe.com/Flows/1.0/">
	<!ENTITY ns_extend "http://ns.adobe.com/Extensibility/1.0/">
	<!ENTITY ns_ai "http://ns.adobe.com/AdobeIllustrator/10.0/">
	<!ENTITY ns_graphs "http://ns.adobe.com/Graphs/1.0/">
]>
<svg version="1.1" id="Layer_1" xmlns:x="&ns_extend;" xmlns:i="&ns_ai;" xmlns:graph="&ns_graphs;"
	 xmlns="http://www.w3.org/2000/svg" xmlns:xlink="http://www.w3.org/1999/xlink" xmlns:a="http://ns.adobe.com/AdobeSVGViewerExtensions/3.0/"
	 x="0px" y="0px" width="24.01px" height="24.01px" viewBox="0 0 24.01 24.01" enable-background="new 0 0 24.01 24.01"
	 xml:space="preserve">
<g>
	<g>
		<path fill="#010101" d="M12.97,3.136l-0.491-0.002v5.15l-0.491-0.003V3.135l-0.53,0.002v5.179h-0.489V3.137h-0.565v5.179H9.91
			V3.137H9.462L9.084,7.518c0,0-0.017,0.166-0.017,0.227c0,0.676,0.314,1.282,0.805,1.675c1.614,1.821,0.513,3.682,0.513,4.123
			c0.002,0.487,0.002,8.012,0.002,8.012c0,0.006-0.002,0.012-0.002,0.02c0,0.462,0.374,0.834,0.836,0.834
			c0.46,0,0.834-0.375,0.834-0.834c0-0.008-0.002-0.014-0.002-0.018h0.002c0,0,0-7.432,0-7.998c0-0.512-0.933-2.652,0.625-4.24
			c0-0.004,0.004-0.008,0.007-0.011c0.379-0.358,0.63-0.854,0.669-1.413c0.002-0.039,0-0.137,0-0.137L12.97,3.136z"/>
		<path fill="#010101" d="M16.609,2.611l-0.396-0.004c0,0-2.098,1.253-2.095,10.548c1.704,0.468,0.983,2.33,0.856,2.57
			c0,0.474,0.035,5.332,0.035,5.332l0.005-0.002c-0.002,0.004-0.005,0.01-0.002,0.016c-0.003,0.445,0.362,0.812,0.806,0.808
			c0.443,0,0.808-0.363,0.806-0.81c0.002-0.002,0.002-0.01,0-0.012l0.002-0.004c0,0,0-5.473-0.002-6.018
			C16.625,14.539,16.609,2.611,16.609,2.611z"/>
		<path fill="#010101" d="M23.01,5.987c0-1.851-1.003-3.551-2.777-3.579V2.405c-0.008,0-0.038,0-0.044,0v0.003
			c-1.775,0.028-2.778,1.729-2.778,3.579c0,1.861,1.122,3.191,2.099,3.485c0.533,0.751,0.182,2.523-0.195,3.546
			c0,0.488,0,7.982,0,7.982h0.001c-0.001,0.004-0.001,0.008-0.001,0.008c0,0.465,0.371,0.84,0.83,0.84c0.025,0,0.112-0.002,0.136,0
			c0.458-0.002,0.831-0.375,0.831-0.834c0,0-0.002-0.01-0.002-0.014h0.002c0,0,0-7.494,0-7.982
			c-0.379-1.022-0.729-2.795-0.196-3.544C21.89,9.179,23.01,7.849,23.01,5.987z M19.305,8.752c-0.11-0.086-0.25-0.223-0.399-0.403
			c-0.148-0.181-0.306-0.402-0.452-0.659c-0.072-0.128-0.141-0.266-0.204-0.412c-0.061-0.151-0.108-0.298-0.144-0.471
			c-0.06-0.331-0.051-0.65-0.016-0.942c0.032-0.293,0.096-0.56,0.166-0.78c0.067-0.222,0.145-0.404,0.209-0.526
			c0.063-0.124,0.113-0.183,0.113-0.183s-0.012,0.08-0.017,0.211s-0.011,0.32-0.02,0.548c-0.005,0.443-0.04,1.05,0.041,1.585
			c0.018,0.126,0.06,0.27,0.104,0.397c0.041,0.133,0.09,0.266,0.144,0.392c0.1,0.257,0.207,0.493,0.301,0.697
			c0.095,0.201,0.177,0.37,0.241,0.484c0.063,0.117,0.121,0.168,0.124,0.164C19.498,8.859,19.412,8.839,19.305,8.752z"/>
	</g>
	<path fill="#ED2224" stroke="#ED2224" stroke-width="0.5" stroke-miterlimit="10" d="M6.573,17.586
		c-1.104-1.103-2.895-1.103-3.996,0c-1.103,1.102-1.103,2.893,0,3.994s2.894,1.102,3.996,0C7.675,20.479,7.675,18.688,6.573,17.586z
		 M6.303,17.854c0.907,0.906,0.95,2.355,0.13,3.314l-3.443-3.443C3.948,16.903,5.396,16.946,6.303,17.854z M2.848,21.311
		c-0.907-0.908-0.95-2.354-0.13-3.313l3.444,3.442C5.203,22.26,3.755,22.217,2.848,21.311z"/>
</g>
</svg>
