<?xml version="1.0" encoding="utf-8"?>
<!-- Generator: Adobe Illustrator 16.0.3, SVG Export Plug-In . SVG Version: 6.00 Build 0)  -->
<!DOCTYPE svg PUBLIC "-//W3C//DTD SVG 1.1//EN" "http://www.w3.org/Graphics/SVG/1.1/DTD/svg11.dtd" [
	<!ENTITY ns_flows "http://ns.adobe.com/Flows/1.0/">
	<!ENTITY ns_extend "http://ns.adobe.com/Extensibility/1.0/">
	<!ENTITY ns_ai "http://ns.adobe.com/AdobeIllustrator/10.0/">
	<!ENTITY ns_graphs "http://ns.adobe.com/Graphs/1.0/">
]>
<svg version="1.1" id="Layer_1" xmlns:x="&ns_extend;" xmlns:i="&ns_ai;" xmlns:graph="&ns_graphs;"
	 xmlns="http://www.w3.org/2000/svg" xmlns:xlink="http://www.w3.org/1999/xlink" xmlns:a="http://ns.adobe.com/AdobeSVGViewerExtensions/3.0/"
	 x="0px" y="0px" width="24.01px" height="24.01px" viewBox="0 0 24.01 24.01" enable-background="new 0 0 24.01 24.01"
	 xml:space="preserve">
<g>
	<path fill="#010101" d="M18.693,10.434c-1.309-2.387-1.909-4.306-2.264-5.473c-0.002,0.005-0.003,0.011-0.006,0.017
		c-0.354,1.169-0.955,3.081-2.257,5.457c-1.365,2.488-2.334,4.166-2.334,5.372c0,2.537,2.055,4.601,4.591,4.601
		c0.003,0,0.004,0,0.006,0c2.538,0,4.598-2.062,4.598-4.601C21.027,14.6,20.058,12.922,18.693,10.434z"/>
	<path fill="#FFFFFF" d="M18.471,11.156c1.534,2.748,2.519,4.964,1.367,6.252C20.061,16.278,19.604,13.888,18.471,11.156z"/>
</g>
<path fill="#ED2224" stroke="#ED2224" stroke-width="0.5" stroke-miterlimit="10" d="M9.55,15.585c-1.103-1.103-2.894-1.103-3.996,0
	c-1.102,1.102-1.102,2.894,0,3.995c1.104,1.102,2.895,1.102,3.996,0S10.651,16.687,9.55,15.585z M9.279,15.854
	c0.906,0.907,0.95,2.356,0.13,3.315l-3.444-3.444C6.924,14.903,8.372,14.946,9.279,15.854z M5.824,19.311
	c-0.907-0.908-0.95-2.354-0.13-3.314l3.443,3.443C8.18,20.26,6.731,20.217,5.824,19.311z"/>
</svg>
