<?xml version="1.0" encoding="utf-8"?>
<!-- Generator: Adobe Illustrator 16.0.3, SVG Export Plug-In . SVG Version: 6.00 Build 0)  -->
<!DOCTYPE svg PUBLIC "-//W3C//DTD SVG 1.1//EN" "http://www.w3.org/Graphics/SVG/1.1/DTD/svg11.dtd" [
	<!ENTITY ns_flows "http://ns.adobe.com/Flows/1.0/">
	<!ENTITY ns_extend "http://ns.adobe.com/Extensibility/1.0/">
	<!ENTITY ns_ai "http://ns.adobe.com/AdobeIllustrator/10.0/">
	<!ENTITY ns_graphs "http://ns.adobe.com/Graphs/1.0/">
]>
<svg version="1.1" id="Layer_1" xmlns:x="&ns_extend;" xmlns:i="&ns_ai;" xmlns:graph="&ns_graphs;"
	 xmlns="http://www.w3.org/2000/svg" xmlns:xlink="http://www.w3.org/1999/xlink" xmlns:a="http://ns.adobe.com/AdobeSVGViewerExtensions/3.0/"
	 x="0px" y="0px" width="24.01px" height="24.01px" viewBox="0 0 24.01 24.01" enable-background="new 0 0 24.01 24.01"
	 xml:space="preserve">
<g>
	<path fill="#010101" d="M4.315,5.197c16.393,2.754,10.647,13.2,9.98,14.318C12.292,12.354,7.048,7.402,7.048,7.402
		c4.502,6.146,5.795,10.429,6.162,12.21C0.932,19.243,4.315,5.197,4.315,5.197z"/>
	<path fill="#010101" d="M16.49,12.897c0.629-1.065,1.392-2.234,2.316-3.497c0,0-1.12,1.06-2.443,2.878
		c-0.262-1.05-0.716-1.966-1.315-2.763c1.432-0.826,3.391-1.515,6.046-1.96c0,0,2.524,10.482-5.855,11.902
		C16.294,17.486,16.857,15.11,16.49,12.897z"/>
</g>
</svg>
