<?xml version="1.0" encoding="utf-8"?>
<!-- Generator: Adobe Illustrator 16.0.3, SVG Export Plug-In . SVG Version: 6.00 Build 0)  -->
<!DOCTYPE svg PUBLIC "-//W3C//DTD SVG 1.1//EN" "http://www.w3.org/Graphics/SVG/1.1/DTD/svg11.dtd" [
	<!ENTITY ns_flows "http://ns.adobe.com/Flows/1.0/">
	<!ENTITY ns_extend "http://ns.adobe.com/Extensibility/1.0/">
	<!ENTITY ns_ai "http://ns.adobe.com/AdobeIllustrator/10.0/">
	<!ENTITY ns_graphs "http://ns.adobe.com/Graphs/1.0/">
]>
<svg version="1.1" id="Layer_1" xmlns:x="&ns_extend;" xmlns:i="&ns_ai;" xmlns:graph="&ns_graphs;"
	 xmlns="http://www.w3.org/2000/svg" xmlns:xlink="http://www.w3.org/1999/xlink" xmlns:a="http://ns.adobe.com/AdobeSVGViewerExtensions/3.0/"
	 x="0px" y="0px" width="24.01px" height="24.01px" viewBox="0 0 24.01 24.01" enable-background="new 0 0 24.01 24.01"
	 xml:space="preserve">
<g id="b28_carrot">
	<path fill="#010101" d="M16.762,12.468c0,0-0.004-0.006-0.009-0.015c-0.126,0.146-0.255,0.297-0.39,0.451L16.762,12.468z"/>
	<path fill="#010101" d="M17.914,6.507c-2.212-1.914-3.938,0.207-3.938,0.207s1.895,1.371,1.579,2.385
		c-0.656-0.067-1.948-1.73-2.064-1.848c-0.776,0.816-1.735,1.945-3.001,3.437c-1.144,1.344-2.113,2.646-2.924,3.867
		c0.39,0.226,0.811,0.673,1.035,1.563l-1.272-1.191c-2.271,3.516-3.178,6.319-2.909,7.465c0.919,0.123,2.323-0.439,4.037-1.646
		l-1.524-1.427c0,0,1.154-0.112,1.741,1.277c1.833-1.325,4.004-3.367,6.313-6.086c0.503-0.593,0.96-1.121,1.376-1.604l-0.123,0.138
		l-1.476-1.465c1.044-0.401,1.893,0.741,1.986,0.876C19.773,8.951,20.129,8.388,17.914,6.507z M11.374,12.159
		c0,0,1.424-0.148,1.914,1.791L11.374,12.159z"/>
	<path fill="#010101" d="M21.321,5.438l-1.616,0.075l1.008-1.107c0.172-0.187,0.598-0.767,0.412-0.937
		c-0.187-0.169-0.914,0.136-1.084,0.323l-1.012,1.105l-0.068-1.497c-0.013-0.251-0.19-1.009-0.442-0.997
		c-0.253,0.012-0.479,0.788-0.469,1.04l0.122,2.598c-0.002,0.002,0,0.004,0.002,0.007c0.003,0.057,0.018,0.112,0.04,0.165
		c0.053,0.108,0.145,0.194,0.257,0.234c0.057,0.02,0.113,0.027,0.169,0.025c0.003,0.001,0.004,0.002,0.009,0.001
		c0.002,0.001,0.006-0.001,0.007-0.002c0.02-0.001,0.036-0.009,0.055-0.012c0.021,0.001,0.038,0.01,0.058,0.008l2.599-0.12
		c0.251-0.012,1.368-0.037,1.356-0.289C22.71,5.81,21.573,5.428,21.321,5.438z"/>
</g>
</svg>
