<?xml version="1.0" encoding="utf-8"?>
<!-- Generator: Adobe Illustrator 16.0.3, SVG Export Plug-In . SVG Version: 6.00 Build 0)  -->
<!DOCTYPE svg PUBLIC "-//W3C//DTD SVG 1.1//EN" "http://www.w3.org/Graphics/SVG/1.1/DTD/svg11.dtd" [
	<!ENTITY ns_flows "http://ns.adobe.com/Flows/1.0/">
	<!ENTITY ns_extend "http://ns.adobe.com/Extensibility/1.0/">
	<!ENTITY ns_ai "http://ns.adobe.com/AdobeIllustrator/10.0/">
	<!ENTITY ns_graphs "http://ns.adobe.com/Graphs/1.0/">
]>
<svg version="1.1" id="Layer_1" xmlns:x="&ns_extend;" xmlns:i="&ns_ai;" xmlns:graph="&ns_graphs;"
	 xmlns="http://www.w3.org/2000/svg" xmlns:xlink="http://www.w3.org/1999/xlink" xmlns:a="http://ns.adobe.com/AdobeSVGViewerExtensions/3.0/"
	 x="0px" y="0px" width="42.52px" height="42.52px" viewBox="0 0 42.52 42.52" enable-background="new 0 0 42.52 42.52"
	 xml:space="preserve">
<g>
	<path fill="#010101" d="M10.512,36.491c0.315-0.048,0.691-0.084,1.103-0.084c0.745,0,1.275,0.174,1.627,0.501
		c0.357,0.328,0.566,0.793,0.566,1.441c0,0.656-0.202,1.192-0.578,1.563c-0.375,0.375-0.996,0.578-1.776,0.578
		c-0.37,0-0.679-0.019-0.942-0.048V36.491L10.512,36.491z M11.031,40.043c0.131,0.024,0.321,0.03,0.524,0.03
		c1.108,0,1.71-0.62,1.71-1.704c0.006-0.948-0.53-1.55-1.627-1.55c-0.268,0-0.471,0.024-0.608,0.054V40.043z"/>
	<path fill="#010101" d="M16.563,38.571h-1.562v1.448h1.74v0.435h-2.259v-4.017h2.169v0.436h-1.651v1.269h1.562V38.571z"/>
	<path fill="#010101" d="M17.346,39.822c0.232,0.144,0.572,0.263,0.93,0.263c0.53,0,0.84-0.279,0.84-0.686
		c0-0.375-0.215-0.589-0.756-0.798c-0.655-0.232-1.061-0.572-1.061-1.139c0-0.626,0.519-1.091,1.299-1.091
		c0.412,0,0.709,0.095,0.888,0.196l-0.143,0.424c-0.131-0.071-0.4-0.191-0.763-0.191c-0.548,0-0.756,0.328-0.756,0.603
		c0,0.375,0.244,0.56,0.798,0.774c0.68,0.263,1.025,0.59,1.025,1.18c0,0.62-0.459,1.157-1.407,1.157
		c-0.387,0-0.81-0.113-1.025-0.257L17.346,39.822z"/>
	<path fill="#010101" d="M20.285,39.822c0.232,0.144,0.572,0.263,0.93,0.263c0.53,0,0.839-0.279,0.839-0.686
		c0-0.375-0.214-0.589-0.756-0.798c-0.655-0.232-1.061-0.572-1.061-1.139c0-0.626,0.519-1.091,1.299-1.091
		c0.412,0,0.709,0.095,0.889,0.196l-0.145,0.424c-0.131-0.071-0.399-0.191-0.762-0.191c-0.548,0-0.757,0.328-0.757,0.603
		c0,0.375,0.245,0.56,0.798,0.774c0.68,0.263,1.025,0.59,1.025,1.18c0,0.62-0.459,1.157-1.407,1.157
		c-0.387,0-0.811-0.113-1.025-0.257L20.285,39.822z"/>
	<path fill="#010101" d="M25.377,38.571h-1.562v1.448h1.74v0.435h-2.259v-4.017h2.169v0.436h-1.65v1.269h1.562V38.571L25.377,38.571
		z"/>
	<path fill="#010101" d="M26.23,36.491c0.262-0.054,0.638-0.084,0.996-0.084c0.554,0,0.912,0.102,1.162,0.328
		c0.201,0.18,0.315,0.453,0.315,0.763c0,0.531-0.333,0.883-0.757,1.026v0.018c0.311,0.107,0.494,0.394,0.59,0.811
		c0.132,0.56,0.228,0.947,0.311,1.103h-0.536c-0.065-0.114-0.155-0.459-0.269-0.96c-0.119-0.554-0.334-0.763-0.804-0.78H26.75v1.74
		h-0.518v-3.964H26.23z M26.749,38.321h0.53c0.555,0,0.906-0.305,0.906-0.764c0-0.518-0.376-0.745-0.924-0.75
		c-0.251,0-0.43,0.023-0.513,0.047V38.321L26.749,38.321z"/>
	<path fill="#010101" d="M30.256,36.878h-1.223v-0.441h2.975v0.441h-1.229v3.576h-0.523V36.878L30.256,36.878z"/>
</g>
<g>
	<path fill="#010101" d="M21.261,5.949c-0.062,0-0.121-0.004-0.182-0.009c-0.101-0.013-0.144-0.02-0.187-0.028
		c-0.098-0.021-0.145-0.033-0.192-0.046c-0.106-0.033-0.194-0.067-0.274-0.104H20.26l-0.064-0.126
		c-0.172-0.111-0.326-0.247-0.458-0.406c-0.034-0.041-0.067-0.085-0.1-0.132c-0.058-0.087-0.081-0.124-0.101-0.163l-0.052-0.1
		c-0.048-0.107-0.075-0.172-0.097-0.237c-0.068-0.205-0.103-0.415-0.103-0.625c0-1.089,0.886-1.975,1.975-1.975
		s1.975,0.886,1.975,1.975c0,0.212-0.035,0.422-0.102,0.624c-0.021,0.067-0.051,0.139-0.085,0.209l-0.143,0.258
		c-0.048,0.07-0.084,0.117-0.12,0.162c-0.132,0.161-0.286,0.298-0.461,0.409l-0.063,0.125L22.099,5.76
		c-0.079,0.037-0.16,0.069-0.244,0.095c-0.08,0.023-0.127,0.036-0.174,0.045l-0.18,0.031C21.384,5.945,21.323,5.949,21.261,5.949z
		 M21.365,5.077l0.185,0.409l-0.083-0.425l0.118-0.028c0.061-0.02,0.115-0.041,0.166-0.066l0.039-0.021
		c0.125-0.067,0.237-0.16,0.325-0.267c0.02-0.024,0.04-0.049,0.057-0.074l0.412,0.158l-0.351-0.257
		c0.052-0.111,0.066-0.145,0.078-0.178c0.039-0.12,0.059-0.237,0.059-0.356c0-0.611-0.497-1.109-1.108-1.109
		c-0.612,0-1.109,0.498-1.109,1.109c0,0.119,0.019,0.233,0.058,0.351c0.013,0.042,0.031,0.082,0.049,0.121l0.144,0.229
		c0.094,0.114,0.204,0.205,0.329,0.272l0.034,0.018c0.052,0.025,0.105,0.047,0.162,0.065l0.213,0.044
		C21.24,5.085,21.295,5.083,21.365,5.077z"/>
	<path fill="#010101" d="M29.525,30.177h-16.53c-0.88,0-1.632-0.657-1.747-1.53l-1.063-8.014l0.607,0.14
		c0.293,0.066,0.583,0.11,0.861,0.126c0.446,0.029,0.88,0.003,1.324-0.079l0.449-0.083l0.759,5.769l0.575-0.077l-0.775-5.888
		l0.288-0.134c0.703-0.327,1.316-0.793,1.821-1.384c0.276-0.322,0.818-0.313,1.099,0.017c0.87,1.011,2.082,1.66,3.408,1.826
		l0.379,0.047v5.549h0.582v-5.549l0.379-0.047c1.32-0.166,2.526-0.81,3.396-1.813c0.291-0.329,0.819-0.335,1.1-0.016
		c0.477,0.552,1.049,0.995,1.704,1.315l0.278,0.137l-0.782,5.939l0.576,0.076l0.763-5.801l0.455,0.093
		c0.487,0.101,0.97,0.131,1.443,0.101c0.339-0.021,0.682-0.077,1.021-0.166l0.64-0.168l-1.262,8.076
		C31.156,29.519,30.405,30.177,29.525,30.177z M11.203,21.724l0.903,6.808c0.059,0.443,0.441,0.778,0.889,0.778h16.53
		c0.448,0,0.829-0.335,0.889-0.778l1.066-6.831c-0.184,0.028-0.367,0.048-0.55,0.06c-0.4,0.028-0.805,0.015-1.216-0.039
		l-0.756,5.753l-2.292-0.301l0.815-6.19c-0.598-0.331-1.13-0.751-1.588-1.256c-0.914,1.007-2.13,1.685-3.467,1.936v5.663h-2.313
		v-5.663c-1.34-0.251-2.559-0.932-3.479-1.947c-0.491,0.543-1.065,0.99-1.71,1.331l0.806,6.126l-2.292,0.301l-0.755-5.74
		c-0.365,0.042-0.729,0.051-1.086,0.025C11.468,21.754,11.336,21.742,11.203,21.724z"/>
	<path fill="#010101" d="M21.271,20.329c-1.398,0-2.725-0.61-3.641-1.671c-0.5-0.582-1.48-0.59-1.978-0.011
		c-0.981,1.147-2.442,1.771-3.963,1.671c-2.423-0.153-4.35-2.099-4.482-4.525c-0.128-2.348,1.439-4.43,3.729-4.951
		c0.079-0.018,0.148-0.07,0.189-0.142c1.595-2.836,4.317-4.886,7.467-5.625l0.31-0.073l0.162,0.274
		c0.319,0.541,0.825,0.942,1.427,1.131c0.1,0.031,0.175,0.052,0.252,0.067c0.079,0.016,0.158,0.026,0.237,0.037
		c0.244,0.021,0.358,0.018,0.514,0.004c0.123-0.014,0.201-0.023,0.276-0.04c0.083-0.017,0.158-0.037,0.232-0.06
		c0.628-0.198,1.135-0.6,1.453-1.14l0.162-0.274l0.311,0.073c3.15,0.74,5.872,2.79,7.466,5.625c0.041,0.073,0.109,0.123,0.19,0.142
		c2.289,0.518,3.858,2.6,3.73,4.95c-0.132,2.423-2.055,4.368-4.475,4.524c-1.521,0.098-2.978-0.518-3.961-1.658
		c-0.497-0.577-1.477-0.569-1.979,0.012C23.987,19.724,22.664,20.329,21.271,20.329z M16.63,17.33c0.635,0,1.238,0.278,1.656,0.763
		c0.75,0.871,1.838,1.371,2.984,1.371c1.143,0,2.227-0.496,2.974-1.359c0.832-0.96,2.465-0.967,3.29-0.01
		c0.806,0.935,2.011,1.443,3.248,1.36c1.983-0.128,3.56-1.722,3.667-3.708c0.104-1.928-1.181-3.635-3.059-4.06
		c-0.319-0.074-0.593-0.278-0.752-0.562c-1.427-2.537-3.826-4.395-6.618-5.135c-0.428,0.586-1.032,1.022-1.733,1.243
		c-0.133,0.042-0.237,0.07-0.344,0.091c-0.093,0.02-0.195,0.033-0.296,0.046c-0.359,0.034-0.493,0.026-0.7,0.007
		c-0.177-0.02-0.276-0.034-0.375-0.054c-0.104-0.021-0.208-0.049-0.31-0.081c-0.729-0.229-1.337-0.666-1.765-1.253
		c-2.791,0.74-5.191,2.598-6.619,5.135c-0.159,0.283-0.432,0.487-0.749,0.561c-1.878,0.428-3.164,2.134-3.059,4.06
		c0.108,1.989,1.688,3.583,3.673,3.709c1.25,0.09,2.445-0.431,3.25-1.372C15.405,17.604,16.001,17.33,16.63,17.33z"/>
	<path fill="#010101" d="M14.566,13.5l-2.015-1.133l0.211-0.377c1.286-2.287,3.35-4.018,5.812-4.873l0.409-0.143l0.758,2.185
		l-0.409,0.142c-1.928,0.671-3.545,2.028-4.554,3.822L14.566,13.5z M13.738,12.042l0.507,0.285c1.044-1.67,2.583-2.962,4.398-3.691
		l-0.19-0.549C16.502,8.862,14.852,10.247,13.738,12.042z"/>
</g>
</svg>
