<?xml version="1.0" encoding="utf-8"?>
<!-- Generator: Adobe Illustrator 16.0.3, SVG Export Plug-In . SVG Version: 6.00 Build 0)  -->
<!DOCTYPE svg PUBLIC "-//W3C//DTD SVG 1.1//EN" "http://www.w3.org/Graphics/SVG/1.1/DTD/svg11.dtd" [
	<!ENTITY ns_flows "http://ns.adobe.com/Flows/1.0/">
	<!ENTITY ns_extend "http://ns.adobe.com/Extensibility/1.0/">
	<!ENTITY ns_ai "http://ns.adobe.com/AdobeIllustrator/10.0/">
	<!ENTITY ns_graphs "http://ns.adobe.com/Graphs/1.0/">
]>
<svg version="1.1" id="Layer_1" xmlns:x="&ns_extend;" xmlns:i="&ns_ai;" xmlns:graph="&ns_graphs;"
	 xmlns="http://www.w3.org/2000/svg" xmlns:xlink="http://www.w3.org/1999/xlink" xmlns:a="http://ns.adobe.com/AdobeSVGViewerExtensions/3.0/"
	 x="0px" y="0px" width="42.52px" height="42.52px" viewBox="0 0 42.52 42.52" enable-background="new 0 0 42.52 42.52"
	 xml:space="preserve">
<g>
	<path fill="#010101" d="M16.434,40.336c-0.238,0.085-0.709,0.226-1.265,0.226c-0.623,0-1.137-0.159-1.54-0.543
		c-0.354-0.344-0.575-0.894-0.575-1.535c0.007-1.228,0.851-2.127,2.231-2.127c0.477,0,0.85,0.104,1.026,0.189l-0.128,0.435
		c-0.221-0.098-0.495-0.178-0.91-0.178c-1.003,0-1.657,0.623-1.657,1.656c0,1.045,0.63,1.663,1.59,1.663
		c0.349,0,0.586-0.049,0.709-0.111v-1.228h-0.837v-0.428h1.356L16.434,40.336L16.434,40.336z"/>
	<path fill="#010101" d="M17.249,36.453c0.269-0.055,0.653-0.085,1.021-0.085c0.568,0,0.936,0.104,1.192,0.336
		c0.207,0.184,0.323,0.465,0.323,0.782c0,0.545-0.342,0.905-0.775,1.052v0.019c0.318,0.109,0.507,0.403,0.604,0.831
		c0.136,0.574,0.233,0.972,0.318,1.13h-0.55c-0.067-0.115-0.159-0.469-0.274-0.982c-0.123-0.569-0.343-0.783-0.825-0.802h-0.502
		v1.784H17.25L17.249,36.453L17.249,36.453z M17.78,38.33h0.545c0.567,0,0.928-0.312,0.928-0.782c0-0.531-0.385-0.764-0.946-0.77
		c-0.257,0-0.44,0.024-0.526,0.049V38.33z"/>
	<path fill="#010101" d="M22.672,38.587H21.07v1.486h1.785v0.444h-2.317v-4.118h2.226v0.445H21.07v1.303h1.602V38.587L22.672,38.587
		z"/>
	<path fill="#010101" d="M25.681,38.587h-1.602v1.486h1.785v0.444h-2.317v-4.118h2.226v0.445h-1.693v1.303h1.602V38.587z"/>
	<path fill="#010101" d="M26.557,36.398h0.531v1.987h0.018c0.11-0.16,0.221-0.307,0.325-0.441l1.259-1.546h0.659l-1.49,1.748
		l1.607,2.371h-0.63l-1.357-2.023l-0.391,0.452v1.571h-0.531V36.398L26.557,36.398z"/>
</g>
<g>
	<path fill="#010101" d="M17.348,11.067l-0.313-0.252c-0.522-0.421-1.173-0.634-1.934-0.634c-0.06,0-0.117,0.004-0.174,0.008
		l-0.049,0.004l-0.102-0.006c-0.669-0.137-1.271-0.08-1.809,0.109l-0.665,0.234l0.235-0.75c0.093-0.302,0.125-0.567,0.16-0.847
		c0.043-0.35,0.087-0.712,0.217-1.055c0.171-0.456,0.541-0.707,0.867-0.929c0.097-0.065,0.195-0.131,0.287-0.204
		c0.099-0.078,0.203-0.143,0.304-0.206c0.253-0.159,0.368-0.237,0.407-0.437c0.017-0.085,0.026-0.176,0.036-0.267
		c0.018-0.163,0.039-0.347,0.093-0.521c0.068-0.215,0.475-1.08,1.082-1.08c0.146,0,0.421,0.055,0.615,0.428
		c0.296,0.567,0.661,1.182,1.126,1.441c0.033,0.018,0.079,0.038,0.13,0.062c0.283,0.129,0.71,0.323,0.757,0.719
		c0.025,0.215-0.021,0.41-0.062,0.58c-0.061,0.256-0.074,0.354,0.012,0.46l0.126,0.155l-0.067,0.188
		c-0.157,0.437-0.229,0.923-0.206,1.407l0.009,0.19L18.28,9.976c-0.321,0.236-0.558,0.481-0.722,0.749L17.348,11.067z M15.101,9.473
		c0.787,0,1.483,0.192,2.075,0.573c0.149-0.185,0.328-0.359,0.537-0.526c-0.002-0.453,0.063-0.904,0.194-1.323
		c-0.171-0.328-0.095-0.65-0.037-0.895c0.03-0.126,0.058-0.245,0.048-0.336c-0.03-0.013-0.253-0.114-0.348-0.157
		c-0.071-0.032-0.135-0.062-0.18-0.087c-0.63-0.351-1.066-1.073-1.41-1.732c-0.006-0.011-0.01-0.019-0.015-0.027
		c-0.117,0.083-0.314,0.357-0.381,0.565c-0.038,0.121-0.05,0.254-0.064,0.385c-0.013,0.113-0.026,0.224-0.046,0.328
		c-0.1,0.507-0.447,0.724-0.726,0.898c-0.081,0.05-0.164,0.102-0.244,0.164C14.4,7.384,14.29,7.459,14.179,7.534
		c-0.274,0.187-0.511,0.347-0.603,0.593c-0.1,0.264-0.137,0.569-0.177,0.892c-0.018,0.148-0.037,0.299-0.062,0.45
		c0.483-0.085,0.992-0.09,1.532,0.015C14.968,9.477,15.033,9.473,15.101,9.473z"/>
	<path fill="#010101" d="M23.519,14.05l0.398-0.592c0.483-0.719,0.671-1.694,0.5-2.611l-0.034-0.185l0.133-0.132
		c0.033-0.032,0.048-0.05,0.06-0.074c0.372-0.827,1.082-1.218,1.768-1.596c0.354-0.195,0.688-0.38,0.978-0.621
		c0.105-0.089,0.224-0.159,0.341-0.224c0.212-0.122,0.283-0.171,0.311-0.298C27.99,7.633,27.994,7.554,28,7.476
		c0.007-0.124,0.018-0.264,0.063-0.419c0.082-0.281,0.357-0.544,0.842-0.804c0.068-0.039,0.152-0.061,0.236-0.061h0.097l0.151,0.067
		c0.361,0.207,0.404,0.66,0.434,0.96c0.008,0.076,0.013,0.145,0.025,0.201c0.023,0.103,0.043,0.216,0.064,0.333
		c0.07,0.397,0.152,0.847,0.394,1.03c0.339,0.26,0.401,0.682,0.447,0.99c0.011,0.078,0.021,0.152,0.036,0.218
		c0.031,0.137,0.041,0.364-0.004,0.52c-0.054,0.189-0.041,0.21,0.057,0.373c0.038,0.062,0.078,0.131,0.119,0.212l0.455,1.003
		l-0.647-0.101c-0.101-0.016-0.177-0.028-0.258-0.035l-0.127-0.036c-0.31-0.153-0.729-0.127-1.118-0.118
		c-0.122,0.002-0.249,0.006-0.375,0.006c-0.397,0-0.616,0.097-0.894,0.219c-0.284,0.128-0.606,0.27-1.132,0.32
		c-0.047,0.031-0.08,0.055-0.113,0.08c-0.386,0.272-0.672,0.58-0.888,0.952c-0.05,0.083-0.085,0.171-0.12,0.259l-0.13,0.304
		l-0.227,0.007c-0.386,0.011-0.77,0.029-1.157,0.052L23.519,14.05z M25.14,10.885c0.122,0.826,0.009,1.66-0.313,2.384
		c0.104-0.004,0.208-0.009,0.313-0.013c0.034-0.077,0.07-0.154,0.113-0.228c0.27-0.46,0.622-0.84,1.078-1.162
		c0.048-0.038,0.111-0.081,0.173-0.123l0.079-0.053l0.136-0.035c0.461-0.032,0.719-0.146,0.993-0.268
		c0.31-0.138,0.63-0.28,1.171-0.28c0,0,0,0,0.001,0c0.128,0,0.247-0.003,0.364-0.006c0.31-0.007,0.604-0.019,0.922,0.031
		c-0.114-0.212-0.174-0.436-0.064-0.817c0.006-0.03,0.004-0.125-0.005-0.163c-0.02-0.082-0.034-0.177-0.048-0.276
		c-0.031-0.209-0.066-0.446-0.177-0.531c-0.46-0.349-0.57-0.969-0.66-1.468c-0.019-0.106-0.037-0.21-0.059-0.305
		c-0.017-0.079-0.027-0.178-0.038-0.284c-0.007-0.074-0.021-0.217-0.046-0.317c-0.238,0.147-0.321,0.253-0.332,0.286
		c-0.023,0.08-0.029,0.166-0.037,0.265c-0.006,0.111-0.015,0.225-0.041,0.345c-0.097,0.446-0.418,0.629-0.652,0.762
		c-0.08,0.045-0.163,0.09-0.236,0.152c-0.342,0.286-0.722,0.495-1.09,0.698c-0.639,0.352-1.189,0.656-1.468,1.271
		C25.192,10.802,25.166,10.847,25.14,10.885z"/>
	<path fill="#010101" d="M32.854,13.33l-0.196-0.157c-0.312-0.451-0.726-0.784-1.232-0.991l-0.536-0.218l0.37-0.318
		c0.041-0.169,0.072-0.351,0.096-0.561c0.01-0.088,0.024-0.176,0.04-0.263c0.023-0.134,0.045-0.251,0.038-0.373
		c-0.012-0.198-0.022-0.401,0.076-0.59c0.262-0.501,0.605-1.032,0.969-1.494c0.072-0.092,0.154-0.171,0.237-0.249
		c0.137-0.128,0.208-0.2,0.225-0.307c0.03-0.173,0.07-0.271,0.145-0.411c0.144-0.273,0.592-0.329,0.796-0.09
		c0.238,0.27,0.221,0.618,0.208,0.872c-0.005,0.085-0.011,0.169-0.002,0.246c0.052,0.439,0.044,0.818,0.033,1.22
		c-0.003,0.155-0.007,0.312-0.007,0.476c0,0.312,0.014,0.627,0.027,0.942c0.018,0.39,0.033,0.78,0.026,1.164
		c-0.004,0.292-0.062,0.631-0.462,0.91c-0.196,0.139-0.456,0.16-0.647,0.174L32.854,13.33z M31.98,11.66
		c0.441,0.228,0.826,0.548,1.134,0.939c0.075-0.008,0.154-0.021,0.186-0.039c0.121-0.085,0.156-0.14,0.159-0.341
		c0.008-0.373-0.009-0.748-0.025-1.124c-0.014-0.325-0.027-0.65-0.027-0.972c0-0.169,0.004-0.333,0.008-0.492
		c0.008-0.376,0.016-0.732-0.029-1.12c-0.002-0.019-0.004-0.039-0.005-0.059c-0.06,0.067-0.122,0.126-0.181,0.181
		c-0.058,0.054-0.115,0.107-0.166,0.17c-0.334,0.429-0.654,0.921-0.896,1.386c-0.008,0.026-0.003,0.117,0,0.171
		c0.013,0.254-0.018,0.43-0.044,0.585c-0.014,0.071-0.025,0.142-0.034,0.216C32.038,11.343,32.014,11.506,31.98,11.66z"/>
	<path fill="#010101" d="M28.665,27.899H13.817c-4.443,0-8.056-3.613-8.056-8.057v-5.965h30.961v5.965
		C36.723,24.286,33.109,27.899,28.665,27.899z M6.468,14.584v5.258c0,4.052,3.296,7.35,7.349,7.35h14.848
		c4.054,0,7.351-3.298,7.351-7.35v-5.258H6.468z"/>
	<path fill="#010101" d="M10.824,14.644H5.81l0.317-0.534c0.066-0.111,0.147-0.195,0.243-0.25c0.036-0.042-0.057-0.172-0.107-0.241
		c-0.06-0.084-0.117-0.167-0.156-0.241c-0.135-0.259-0.145-0.364-0.06-0.627l0.358,0.041l-0.322-0.155
		c0.125-0.4,0.188-0.6,0.086-0.938c-0.118-0.388-0.006-0.729,0.092-1.03c0.098-0.299,0.154-0.493,0.072-0.699L6.295,9.872
		C6.152,9.521,5.937,8.991,6.514,8.546C6.961,8.2,7.648,8.142,7.921,8.134c0.073-0.003,0.14-0.005,0.208-0.005
		c0.191,0,0.771,0,0.998,0.541c0.026,0.063,0.054,0.153,0.084,0.257c0.038,0.128,0.126,0.429,0.2,0.491
		c0.245,0.021,0.441,0.046,0.7,0.133c0.328,0.11,0.653,0.244,0.812,0.47c0.1,0.144,0.154,0.324,0.206,0.499
		c0.039,0.13,0.092,0.308,0.144,0.365l0.193,0.212l-0.168,0.232c-0.394,0.549-0.602,1.182-0.602,1.83
		c0,0.314,0.025,0.66,0.079,1.088L10.824,14.644z M7.115,13.937h2.914c-0.027-0.285-0.04-0.538-0.041-0.777
		c0-0.721,0.207-1.423,0.601-2.045c-0.06-0.128-0.101-0.266-0.139-0.394c-0.033-0.109-0.073-0.246-0.107-0.294
		c-0.023-0.024-0.118-0.09-0.459-0.206c-0.193-0.065-0.334-0.083-0.548-0.112C8.802,10.041,8.64,9.49,8.533,9.126
		c-0.021-0.074-0.04-0.139-0.059-0.184C8.457,8.901,8.43,8.836,8.129,8.836L7.955,8.84C7.523,8.854,7.14,8.956,6.945,9.106
		c-0.131,0.101-0.151,0.117,0.004,0.5L6.992,9.71c0.179,0.454,0.047,0.855-0.059,1.177c-0.087,0.267-0.138,0.439-0.087,0.606
		c0.165,0.546,0.048,0.921-0.088,1.354l-0.039,0.12c-0.004,0.013-0.007,0.023-0.011,0.034c0.006,0.014,0.015,0.03,0.025,0.049
		c0.026,0.049,0.064,0.101,0.104,0.157C6.971,13.393,7.15,13.644,7.115,13.937z"/>
	<path fill="#010101" d="M24.361,14.645h-5.922l0.074-0.417c0.216-1.198-0.146-2.732-1.443-3.46l-0.23-0.129l0.058-0.257
		c0.022-0.101,0.062-0.252,0.149-0.403c0.327-0.572,0.937-0.633,1.427-0.683c0.142-0.015,0.283-0.028,0.414-0.056
		c0.111-0.023,0.143-0.05,0.144-0.05c-0.015-0.007-0.059-0.137-0.085-0.214c-0.082-0.241-0.253-0.743,0.213-1.032
		c0.205-0.129,0.419-0.172,0.607-0.21c0.144-0.028,0.268-0.054,0.361-0.111l0.149-0.09c0.356-0.213,0.613-0.368,0.841-0.683
		c0.343-0.475,0.926-0.505,1.395-0.529c0.243-0.012,0.492-0.025,0.623-0.097c0.604-0.329,1.067-0.275,1.303,0.086
		c0.318,0.486,0.018,1.272-0.083,1.502c-0.074,0.17-0.005,0.315,0.181,0.63c0.186,0.314,0.414,0.705,0.295,1.204
		c-0.142,0.599-0.146,0.923,0.196,1.257l0.055,0.05c0.148,0.129,0.373,0.325,0.348,0.608c-0.035,0.396-0.255,0.605-0.468,0.808
		c-0.162,0.155-0.169,0.211-0.198,0.452l-0.019,0.15c-0.034,0.247-0.13,0.454-0.213,0.639c-0.062,0.136-0.12,0.265-0.146,0.391
		c-0.021,0.102-0.025,0.196-0.025,0.287V14.645z M19.266,13.938h4.415c0.004-0.025,0.009-0.05,0.014-0.076
		c0.043-0.205,0.123-0.384,0.195-0.541c0.069-0.154,0.136-0.3,0.156-0.445l0.018-0.136c0.033-0.282,0.065-0.549,0.411-0.878
		c0.15-0.144,0.212-0.21,0.237-0.287c-0.03-0.03-0.07-0.066-0.094-0.086c-0.034-0.03-0.063-0.057-0.087-0.079
		c-0.631-0.615-0.537-1.288-0.387-1.923c0.05-0.212-0.05-0.397-0.217-0.682c-0.198-0.336-0.443-0.754-0.22-1.272
		c0.186-0.424,0.189-0.763,0.14-0.833c-0.037,0.013-0.149,0.026-0.372,0.147c-0.272,0.148-0.604,0.166-0.925,0.182
		c-0.367,0.019-0.714,0.037-0.858,0.237c-0.313,0.433-0.671,0.647-1.05,0.875l-0.146,0.088c-0.2,0.122-0.407,0.164-0.589,0.2
		c-0.148,0.029-0.276,0.055-0.373,0.116c0.014,0.002,0.057,0.129,0.083,0.205c0.075,0.221,0.179,0.524,0.018,0.805
		c-0.109,0.192-0.305,0.315-0.601,0.378c-0.155,0.033-0.322,0.05-0.49,0.067c-0.446,0.045-0.73,0.089-0.872,0.311
		C18.786,11.074,19.394,12.463,19.266,13.938z"/>
	<path fill="#010101" d="M36.202,14.644H31.2l1.287-0.64c0.014-0.02,0.026-0.039,0.039-0.059l0.078-0.089
		c0.737-0.607,1.151-1.614,1.104-2.695l-0.01-0.238l0.217-0.099c0.18-0.081,0.334-0.157,0.403-0.271
		c0.213-0.352,0.468-0.771,0.85-0.972l0.061-0.034c0.319-0.18,0.654-0.347,0.942-0.347c0.272,0,0.485,0.154,0.557,0.402
		c0.085,0.295-0.03,0.605-0.122,0.854c-0.035,0.092-0.07,0.181-0.083,0.255c-0.092,0.521-0.188,1.028-0.362,1.514
		c-0.161,0.435-0.144,0.923-0.124,1.395c0.003,0.111,0.03,0.237,0.055,0.368c0.016,0.082,0.033,0.164,0.046,0.247L36.202,14.644z
		 M33.52,13.937h1.844c-0.019-0.102-0.03-0.2-0.034-0.289c-0.02-0.516-0.041-1.101,0.167-1.665c0.155-0.431,0.245-0.904,0.331-1.393
		c0.02-0.112,0.066-0.243,0.116-0.38c0.028-0.076,0.068-0.182,0.09-0.271c-0.109,0.04-0.263,0.114-0.457,0.224L35.5,10.206
		c-0.211,0.111-0.405,0.434-0.549,0.669c-0.148,0.243-0.336,0.385-0.531,0.49C34.411,12.337,34.087,13.251,33.52,13.937z"/>
	<path fill="#010101" d="M33.594,14.644H23.438l0.546-0.593c0.672-0.728,1.526-1.381,2.477-1.888c1.326-0.708,2.746-1.098,4-1.098
		c1.438,0,2.541,0.523,3.029,1.436c0.285,0.535,0.345,1.184,0.172,1.876L33.594,14.644z M25.115,13.937h7.913
		c0.062-0.416,0.007-0.786-0.163-1.103c-0.361-0.674-1.237-1.062-2.405-1.062c-1.141,0-2.442,0.36-3.667,1.014
		C26.183,13.113,25.613,13.504,25.115,13.937z"/>
	<path fill="#010101" d="M19.272,14.644h-8.688l-0.097-0.199c-0.274-0.56-0.379-1.139-0.315-1.72
		c0.225-2.01,2.478-3.472,5.077-3.188c1.23,0.137,2.349,0.641,3.148,1.418c0.825,0.802,1.218,1.798,1.106,2.804
		c-0.023,0.211-0.072,0.422-0.149,0.646L19.272,14.644z M11.036,13.937h7.72c0.021-0.086,0.037-0.171,0.045-0.254
		c0.087-0.785-0.231-1.573-0.896-2.219c-0.688-0.669-1.659-1.104-2.733-1.223c-2.199-0.243-4.115,0.939-4.296,2.563
		C10.834,13.182,10.888,13.563,11.036,13.937z"/>
</g>
</svg>
