<?xml version="1.0" encoding="utf-8"?>
<!-- Generator: Adobe Illustrator 16.0.3, SVG Export Plug-In . SVG Version: 6.00 Build 0)  -->
<!DOCTYPE svg PUBLIC "-//W3C//DTD SVG 1.1//EN" "http://www.w3.org/Graphics/SVG/1.1/DTD/svg11.dtd" [
	<!ENTITY ns_flows "http://ns.adobe.com/Flows/1.0/">
	<!ENTITY ns_extend "http://ns.adobe.com/Extensibility/1.0/">
	<!ENTITY ns_ai "http://ns.adobe.com/AdobeIllustrator/10.0/">
	<!ENTITY ns_graphs "http://ns.adobe.com/Graphs/1.0/">
]>
<svg version="1.1" id="Layer_1" xmlns:x="&ns_extend;" xmlns:i="&ns_ai;" xmlns:graph="&ns_graphs;"
	 xmlns="http://www.w3.org/2000/svg" xmlns:xlink="http://www.w3.org/1999/xlink" xmlns:a="http://ns.adobe.com/AdobeSVGViewerExtensions/3.0/"
	 x="0px" y="0px" width="42.52px" height="42.52px" viewBox="0 0 42.52 42.52" enable-background="new 0 0 42.52 42.52"
	 xml:space="preserve">
<g>
	<path fill="#010101" d="M3.964,38.62c-0.029-0.542-0.063-1.192-0.057-1.679H3.89c-0.132,0.457-0.293,0.94-0.491,1.478l-0.687,1.885
		h-0.38l-0.627-1.852c-0.186-0.547-0.34-1.048-0.451-1.511H1.243c-0.011,0.484-0.041,1.137-0.075,1.72l-0.105,1.666H0.586
		l0.27-3.886h0.64l0.663,1.88c0.162,0.478,0.293,0.904,0.392,1.307h0.018c0.098-0.39,0.237-0.816,0.409-1.307l0.692-1.88h0.64
		l0.242,3.886h-0.49L3.964,38.62z"/>
	<path fill="#010101" d="M7.339,38.505h-1.51v1.401h1.683v0.421H5.327v-3.886h2.099v0.421H5.829v1.227h1.51V38.505z"/>
	<path fill="#010101" d="M8.166,36.492c0.305-0.046,0.668-0.08,1.066-0.08c0.72,0,1.233,0.167,1.573,0.483
		c0.346,0.316,0.549,0.767,0.549,1.395c0,0.635-0.196,1.154-0.56,1.512c-0.363,0.362-0.964,0.559-1.717,0.559
		c-0.358,0-0.657-0.017-0.911-0.046V36.492L8.166,36.492z M8.667,39.929c0.127,0.022,0.311,0.029,0.507,0.029
		c1.072,0,1.654-0.602,1.654-1.649c0.005-0.917-0.513-1.499-1.573-1.499c-0.259,0-0.456,0.022-0.588,0.053V39.929z"/>
	<path fill="#010101" d="M12.507,36.441v3.885h-0.501v-3.885H12.507z"/>
	<path fill="#010101" d="M14.123,36.867H12.94v-0.426h2.876v0.426h-1.188v3.46h-0.507L14.123,36.867L14.123,36.867z"/>
	<path fill="#010101" d="M18.264,38.505h-1.511v1.401h1.683v0.421h-2.185v-3.886h2.098v0.421h-1.596v1.227h1.511V38.505z"/>
	<path fill="#010101" d="M19.089,36.492c0.253-0.051,0.616-0.08,0.963-0.08c0.535,0,0.881,0.097,1.124,0.317
		c0.195,0.173,0.304,0.438,0.304,0.737c0,0.514-0.321,0.854-0.73,0.992v0.017c0.299,0.104,0.477,0.381,0.571,0.784
		c0.126,0.542,0.219,0.917,0.298,1.067h-0.518c-0.063-0.11-0.15-0.444-0.259-0.929c-0.116-0.535-0.323-0.737-0.779-0.755h-0.472
		v1.684H19.09L19.089,36.492L19.089,36.492z M19.59,38.264h0.513c0.535,0,0.876-0.296,0.876-0.739c0-0.5-0.363-0.721-0.894-0.727
		c-0.242,0-0.414,0.024-0.495,0.047V38.264L19.59,38.264z"/>
	<path fill="#010101" d="M22.191,36.492c0.254-0.051,0.617-0.08,0.965-0.08c0.533,0,0.881,0.097,1.123,0.317
		c0.197,0.173,0.305,0.438,0.305,0.737c0,0.514-0.322,0.854-0.732,0.992v0.017c0.301,0.104,0.48,0.381,0.572,0.784
		c0.127,0.542,0.219,0.917,0.299,1.067h-0.518c-0.064-0.11-0.15-0.444-0.26-0.929c-0.115-0.535-0.324-0.737-0.777-0.755h-0.473
		v1.684h-0.502v-3.835H22.191z M22.695,38.264h0.51c0.537,0,0.877-0.296,0.877-0.739c0-0.5-0.363-0.721-0.893-0.727
		c-0.242,0-0.416,0.024-0.494,0.047V38.264L22.695,38.264z"/>
	<path fill="#010101" d="M25.951,39.104l-0.402,1.223h-0.518l1.318-3.885h0.605l1.328,3.885h-0.537l-0.416-1.223H25.951z
		 M27.227,38.712l-0.381-1.118c-0.086-0.253-0.145-0.483-0.201-0.71h-0.012c-0.059,0.231-0.121,0.468-0.195,0.703l-0.381,1.125
		H27.227z"/>
	<path fill="#010101" d="M28.854,40.327v-3.886h0.549l1.246,1.965c0.289,0.457,0.512,0.865,0.697,1.264l0.01-0.007
		c-0.045-0.519-0.059-0.991-0.059-1.596v-1.626h0.475v3.886h-0.508l-1.234-1.973c-0.27-0.432-0.529-0.876-0.725-1.297l-0.018,0.006
		c0.027,0.49,0.039,0.957,0.039,1.602v1.661L28.854,40.327L28.854,40.327z"/>
	<path fill="#010101" d="M34.662,38.505h-1.51v1.401h1.682v0.421H32.65v-3.886h2.096v0.421h-1.594v1.227h1.51V38.505z"/>
	<path fill="#010101" d="M36.115,39.104l-0.402,1.223h-0.52l1.32-3.885h0.605l1.324,3.885h-0.537l-0.414-1.223H36.115z
		 M37.391,38.712l-0.381-1.118c-0.088-0.253-0.145-0.483-0.203-0.71h-0.01c-0.059,0.231-0.123,0.468-0.195,0.703l-0.381,1.125
		H37.391z"/>
	<path fill="#010101" d="M39.018,40.327v-3.886h0.547l1.244,1.965c0.291,0.457,0.516,0.865,0.699,1.264l0.012-0.007
		c-0.047-0.519-0.059-0.991-0.059-1.596v-1.626h0.473v3.886h-0.508l-1.232-1.973c-0.271-0.432-0.531-0.876-0.727-1.297l-0.018,0.006
		c0.029,0.49,0.041,0.957,0.041,1.602v1.661L39.018,40.327L39.018,40.327z"/>
</g>
<g>
	<path fill="#010101" d="M24.119,12.394c-0.015,0-0.028,0-0.041-0.002c-0.953-0.099-2.796-0.756-2.95-2.538
		c-0.102-1.156,0.815-1.87,1.702-2.562c0.847-0.661,1.646-1.284,1.646-2.247c0-1.912-2.252-2.37-2.273-2.375
		c-0.216-0.042-0.356-0.25-0.315-0.465c0.042-0.216,0.253-0.356,0.465-0.314c1.011,0.195,2.918,1.105,2.918,3.153
		c0,1.351-1.038,2.16-1.952,2.873c-0.785,0.612-1.463,1.141-1.4,1.867c0.137,1.582,2.221,1.815,2.241,1.817
		c0.219,0.023,0.377,0.218,0.354,0.436C24.492,12.242,24.32,12.394,24.119,12.394z"/>
	<path fill="#010101" d="M29.453,10.86c-0.014,0-0.027-0.001-0.042-0.002c-0.78-0.082-2.29-0.623-2.419-2.091
		c-0.084-0.961,0.696-1.57,1.384-2.106c0.656-0.513,1.277-0.997,1.277-1.724c0-1.453-1.726-1.803-1.743-1.807
		c-0.215-0.042-0.354-0.25-0.313-0.465c0.041-0.216,0.254-0.357,0.465-0.314c0.825,0.159,2.386,0.905,2.386,2.585
		c0,1.115-0.841,1.771-1.583,2.35c-0.701,0.547-1.125,0.915-1.082,1.411c0.104,1.191,1.695,1.369,1.712,1.371
		c0.217,0.023,0.375,0.217,0.354,0.436C29.826,10.708,29.653,10.86,29.453,10.86z"/>
	<path fill="#010101" d="M18.748,11.398c-0.013,0-0.027-0.001-0.041-0.002c-0.781-0.081-2.291-0.623-2.418-2.092
		c-0.083-0.962,0.696-1.57,1.384-2.106c0.657-0.512,1.277-0.996,1.277-1.723c0-1.443-1.672-1.793-1.743-1.807
		c-0.215-0.044-0.354-0.251-0.313-0.466c0.042-0.215,0.249-0.356,0.464-0.313c0.826,0.159,2.386,0.905,2.386,2.586
		c0,1.114-0.841,1.77-1.583,2.349c-0.702,0.547-1.125,0.916-1.081,1.412c0.104,1.191,1.693,1.37,1.709,1.372
		c0.218,0.023,0.376,0.217,0.353,0.436C19.121,11.246,18.949,11.398,18.748,11.398z"/>
	<path fill="#010101" d="M38.63,17.589h-2.953c-0.219,0-0.396-0.178-0.396-0.397c0-0.219,0.178-0.396,0.396-0.396h2.953
		c0.219,0,0.396,0.177,0.396,0.396C39.026,17.411,38.849,17.589,38.63,17.589z"/>
	<path fill="#010101" d="M13.501,17.589H3.199c-0.219,0-0.397-0.178-0.397-0.397c0-0.219,0.178-0.396,0.397-0.396h10.302
		c0.22,0,0.397,0.177,0.397,0.396C13.898,17.411,13.721,17.589,13.501,17.589z"/>
	<path fill="#010101" d="M17.773,20.939c-1.858,0-3.371-1.681-3.371-3.748c0-2.066,1.513-3.747,3.371-3.747
		c1.858,0,3.371,1.681,3.371,3.747C21.144,19.258,19.631,20.939,17.773,20.939z M17.773,14.238c-1.421,0-2.577,1.326-2.577,2.954
		c0,1.629,1.156,2.954,2.577,2.954c1.422,0,2.577-1.325,2.577-2.954C20.35,15.563,19.195,14.238,17.773,14.238z"/>
	<path fill="#010101" d="M25.877,20.42c-1.604,0-2.91-1.448-2.91-3.229c0-1.78,1.306-3.228,2.91-3.228
		c1.605,0,2.91,1.448,2.91,3.228C28.787,18.972,27.482,20.42,25.877,20.42z M25.877,14.758c-1.168,0-2.117,1.091-2.117,2.434
		c0,1.343,0.949,2.435,2.117,2.435c1.167,0,2.117-1.092,2.117-2.435C27.994,15.849,27.044,14.758,25.877,14.758z"/>
	<path fill="#010101" d="M32.134,20.089c-1.539,0-2.789-1.299-2.789-2.898c0-1.598,1.25-2.897,2.789-2.897
		c1.537,0,2.789,1.299,2.789,2.897C34.923,18.79,33.671,20.089,32.134,20.089z M32.134,15.087c-1.101,0-1.996,0.944-1.996,2.104
		c0,1.161,0.896,2.105,1.996,2.105c1.1,0,1.994-0.944,1.994-2.105C34.128,16.031,33.233,15.087,32.134,15.087z"/>
	<path fill="#010101" d="M22.139,20.938c-0.219,0-0.396-0.177-0.396-0.397v-6.7c0-0.219,0.177-0.397,0.396-0.397
		c0.219,0,0.397,0.178,0.397,0.397v6.7C22.536,20.761,22.357,20.938,22.139,20.938z"/>
	<path fill="#010101" d="M35.677,20.938c-0.219,0-0.396-0.177-0.396-0.397v-6.7c0-0.219,0.178-0.397,0.396-0.397
		c0.22,0,0.397,0.178,0.397,0.397v6.7C36.074,20.761,35.896,20.938,35.677,20.938z"/>
	<path fill="#010101" d="M13.501,20.938c-0.219,0-0.396-0.177-0.396-0.397v-6.7c0-0.219,0.177-0.397,0.396-0.397
		c0.22,0,0.397,0.178,0.397,0.397v6.7C13.898,20.761,13.721,20.938,13.501,20.938z"/>
	<path fill="#010101" d="M39.32,26.706h-3.956c-0.22,0-0.397-0.178-0.397-0.396c0-0.22,0.178-0.397,0.397-0.397h3.956
		c0.22,0,0.397,0.178,0.397,0.397C39.718,26.528,39.54,26.706,39.32,26.706z"/>
	<path fill="#010101" d="M13.188,26.706H3.89c-0.22,0-0.397-0.178-0.397-0.396c0-0.22,0.178-0.397,0.397-0.397h9.298
		c0.219,0,0.396,0.178,0.396,0.397C13.584,26.528,13.407,26.706,13.188,26.706z"/>
	<path fill="#010101" d="M31.091,30.057c-1.858,0-3.37-1.682-3.37-3.747c0-2.068,1.512-3.748,3.37-3.748s3.37,1.68,3.37,3.748
		C34.461,28.375,32.949,30.057,31.091,30.057z M31.091,23.354c-1.421,0-2.577,1.326-2.577,2.955c0,1.628,1.156,2.953,2.577,2.953
		c1.42,0,2.577-1.325,2.577-2.953C33.668,24.681,32.511,23.354,31.091,23.354z"/>
	<path fill="#010101" d="M22.987,29.536c-1.605,0-2.911-1.447-2.911-3.227c0-1.78,1.306-3.229,2.911-3.229
		c1.604,0,2.91,1.448,2.91,3.229C25.897,28.089,24.592,29.536,22.987,29.536z M22.987,23.875c-1.168,0-2.117,1.092-2.117,2.435
		c0,1.341,0.949,2.434,2.117,2.434c1.167,0,2.116-1.093,2.116-2.434C25.104,24.967,24.154,23.875,22.987,23.875z"/>
	<path fill="#010101" d="M16.731,29.206c-1.538,0-2.789-1.3-2.789-2.896c0-1.599,1.251-2.898,2.789-2.898s2.788,1.3,2.788,2.898
		C19.519,27.906,18.269,29.206,16.731,29.206z M16.731,24.205c-1.1,0-1.995,0.944-1.995,2.104s0.895,2.103,1.995,2.103
		s1.995-0.942,1.995-2.103S17.831,24.205,16.731,24.205z"/>
	<path fill="#010101" d="M26.725,30.057c-0.219,0-0.396-0.177-0.396-0.397v-6.701c0-0.22,0.178-0.396,0.396-0.396
		c0.22,0,0.397,0.177,0.397,0.396v6.701C27.122,29.88,26.944,30.057,26.725,30.057z"/>
	<path fill="#010101" d="M13.188,30.057c-0.219,0-0.397-0.177-0.397-0.397v-6.701c0-0.22,0.178-0.396,0.397-0.396
		s0.396,0.177,0.396,0.396v6.701C13.584,29.88,13.407,30.057,13.188,30.057z"/>
	<path fill="#010101" d="M35.364,30.057c-0.22,0-0.397-0.177-0.397-0.397v-6.701c0-0.22,0.178-0.396,0.397-0.396
		c0.219,0,0.396,0.177,0.396,0.396v6.701C35.76,29.88,35.583,30.057,35.364,30.057z"/>
</g>
</svg>
