<?xml version="1.0" encoding="utf-8"?>
<!-- Generator: Adobe Illustrator 16.0.3, SVG Export Plug-In . SVG Version: 6.00 Build 0)  -->
<!DOCTYPE svg PUBLIC "-//W3C//DTD SVG 1.1//EN" "http://www.w3.org/Graphics/SVG/1.1/DTD/svg11.dtd" [
	<!ENTITY ns_flows "http://ns.adobe.com/Flows/1.0/">
	<!ENTITY ns_extend "http://ns.adobe.com/Extensibility/1.0/">
	<!ENTITY ns_ai "http://ns.adobe.com/AdobeIllustrator/10.0/">
	<!ENTITY ns_graphs "http://ns.adobe.com/Graphs/1.0/">
]>
<svg version="1.1" id="Layer_1" xmlns:x="&ns_extend;" xmlns:i="&ns_ai;" xmlns:graph="&ns_graphs;"
	 xmlns="http://www.w3.org/2000/svg" xmlns:xlink="http://www.w3.org/1999/xlink" xmlns:a="http://ns.adobe.com/AdobeSVGViewerExtensions/3.0/"
	 x="0px" y="0px" width="42.52px" height="42.52px" viewBox="0 0 42.52 42.52" enable-background="new 0 0 42.52 42.52"
	 xml:space="preserve">
<g>
	<path fill="#010101" d="M11.479,39.127l-0.414,1.253h-0.532l1.354-3.982h0.621l1.358,3.982h-0.549l-0.426-1.253H11.479z
		 M12.784,38.726l-0.39-1.146c-0.089-0.26-0.147-0.496-0.207-0.727h-0.013c-0.059,0.236-0.123,0.479-0.2,0.721l-0.39,1.152H12.784z"
		/>
	<path fill="#010101" d="M14.452,36.397h2.146v0.431h-1.631v1.324h1.507v0.425h-1.507v1.803h-0.515V36.397z"/>
	<path fill="#010101" d="M17.332,36.45c0.26-0.053,0.632-0.082,0.986-0.082c0.55,0,0.904,0.101,1.152,0.325
		c0.201,0.177,0.314,0.449,0.314,0.756c0,0.525-0.332,0.875-0.751,1.017v0.018c0.308,0.106,0.49,0.391,0.585,0.804
		c0.13,0.556,0.226,0.939,0.309,1.093h-0.532c-0.065-0.111-0.154-0.454-0.267-0.951c-0.118-0.549-0.331-0.756-0.797-0.773h-0.485
		v1.725h-0.515V36.45z M17.847,38.265h0.525c0.55,0,0.898-0.301,0.898-0.757c0-0.514-0.373-0.738-0.916-0.744
		c-0.249,0-0.426,0.023-0.508,0.048V38.265z"/>
	<path fill="#010101" d="M21.027,36.397v3.982h-0.515v-3.982H21.027z"/>
	<path fill="#010101" d="M24.709,40.25c-0.189,0.095-0.566,0.189-1.052,0.189c-1.122,0-1.968-0.709-1.968-2.015
		c0-1.248,0.846-2.093,2.08-2.093c0.497,0,0.811,0.106,0.945,0.178l-0.124,0.419c-0.195-0.094-0.473-0.165-0.804-0.165
		c-0.934,0-1.554,0.597-1.554,1.643c0,0.976,0.562,1.602,1.53,1.602c0.313,0,0.632-0.064,0.839-0.165L24.709,40.25z"/>
	<path fill="#010101" d="M26.022,39.127l-0.413,1.253h-0.532l1.354-3.982h0.621l1.358,3.982h-0.549l-0.426-1.253H26.022z
		 M27.328,38.726l-0.39-1.146c-0.088-0.26-0.147-0.496-0.207-0.727H26.72c-0.059,0.236-0.124,0.479-0.2,0.721l-0.39,1.152H27.328z"
		/>
	<path fill="#010101" d="M28.997,40.38v-3.982h0.563l1.275,2.016c0.296,0.467,0.526,0.887,0.716,1.294l0.011-0.006
		c-0.047-0.532-0.059-1.017-0.059-1.637v-1.667h0.484v3.982h-0.52l-1.265-2.021c-0.278-0.443-0.544-0.898-0.745-1.33l-0.018,0.006
		c0.03,0.502,0.041,0.981,0.041,1.643v1.702H28.997L28.997,40.38z"/>
</g>
<g>
	<path fill="#010101" d="M36.193,10.46H6.326c-0.479,0-0.868-0.389-0.868-0.868c0-0.479,0.389-0.868,0.868-0.868h0.907
		c2.386-0.873,7.875-1.436,14.027-1.436c6.152,0,11.64,0.563,14.027,1.436h0.906c0.479,0,0.867,0.389,0.867,0.868
		C37.061,10.071,36.672,10.46,36.193,10.46z M6.326,9.414c-0.097,0-0.179,0.082-0.179,0.179c0,0.096,0.082,0.178,0.179,0.178h29.867
		c0.098,0,0.178-0.082,0.178-0.178c0-0.097-0.08-0.179-0.178-0.179l-1.09-0.022c-2.246-0.846-7.81-1.414-13.843-1.414
		S9.663,8.545,7.416,9.392L7.295,9.414H6.326z"/>
	<path fill="#010101" d="M27.846,8.466H14.675V5.189c0-0.872,0.341-1.694,0.961-2.313c0.621-0.621,1.443-0.963,2.315-0.963h6.618
		c0.871,0,1.694,0.342,2.315,0.962c0.619,0.62,0.961,1.442,0.961,2.314V8.466z M15.364,7.777h11.792V5.189
		c0-0.688-0.27-1.336-0.759-1.826c-0.491-0.49-1.14-0.761-1.828-0.761h-6.618c-0.688,0-1.337,0.271-1.828,0.761
		c-0.49,0.49-0.76,1.139-0.76,1.826V7.777z"/>
	<path fill="#010101" d="M33.299,30.164H8.872c-1.401,0-2.238-0.799-2.238-2.136v-10.96H3.344c-0.727,0-1.422-0.296-1.96-0.834
		c-0.518-0.52-0.815-1.241-0.815-1.981c0-0.731,0.282-1.4,0.815-1.935c0.492-0.492,1.188-0.763,1.96-0.763h3.29v-0.689h29.639v0.689
		h2.9c0.773,0,1.471,0.271,1.961,0.763c0.525,0.525,0.816,1.218,0.816,1.951c0,0.732-0.291,1.425-0.814,1.952
		c-0.547,0.547-1.244,0.849-1.963,0.849h-2.9V27.68C36.273,29.311,34.777,30.164,33.299,30.164z M3.344,12.243
		c-0.597,0-1.106,0.194-1.472,0.561c-0.401,0.402-0.614,0.903-0.614,1.448c0,0.559,0.223,1.104,0.613,1.494
		c0.407,0.408,0.93,0.632,1.472,0.632h3.98v11.65c0,1.196,0.842,1.447,1.548,1.447h24.427c1.137,0,2.285-0.617,2.285-1.796V16.378
		h3.59c0.527,0,1.064-0.236,1.475-0.645c0.396-0.396,0.613-0.917,0.613-1.466s-0.217-1.068-0.613-1.463
		c-0.367-0.367-0.877-0.562-1.475-0.562h-3.59v-0.689H7.324v0.689H3.344z"/>
</g>
</svg>
