<?xml version="1.0" encoding="utf-8"?>
<!-- Generator: Adobe Illustrator 16.0.3, SVG Export Plug-In . SVG Version: 6.00 Build 0)  -->
<!DOCTYPE svg PUBLIC "-//W3C//DTD SVG 1.1//EN" "http://www.w3.org/Graphics/SVG/1.1/DTD/svg11.dtd" [
	<!ENTITY ns_flows "http://ns.adobe.com/Flows/1.0/">
	<!ENTITY ns_extend "http://ns.adobe.com/Extensibility/1.0/">
	<!ENTITY ns_ai "http://ns.adobe.com/AdobeIllustrator/10.0/">
	<!ENTITY ns_graphs "http://ns.adobe.com/Graphs/1.0/">
]>
<svg version="1.1" id="Layer_1" xmlns:x="&ns_extend;" xmlns:i="&ns_ai;" xmlns:graph="&ns_graphs;"
	 xmlns="http://www.w3.org/2000/svg" xmlns:xlink="http://www.w3.org/1999/xlink" xmlns:a="http://ns.adobe.com/AdobeSVGViewerExtensions/3.0/"
	 x="0px" y="0px" width="42.52px" height="42.52px" viewBox="0 0 42.52 42.52" enable-background="new 0 0 42.52 42.52"
	 xml:space="preserve">
<g>
	<path fill="#010101" d="M12.292,36.373V40.5h-0.533v-4.127H12.292z"/>
	<path fill="#010101" d="M14.007,36.826h-1.255v-0.453h3.055v0.453h-1.262V40.5h-0.538V36.826L14.007,36.826z"/>
	<path fill="#010101" d="M16.476,39.202L16.047,40.5h-0.551l1.402-4.127h0.643l1.408,4.127h-0.568l-0.441-1.298H16.476z
		 M17.829,38.785l-0.404-1.188c-0.093-0.27-0.153-0.515-0.214-0.753h-0.013c-0.062,0.245-0.129,0.496-0.208,0.747l-0.404,1.193
		H17.829z"/>
	<path fill="#010101" d="M19.558,36.373h0.533v3.68h1.763V40.5h-2.296V36.373z"/>
	<path fill="#010101" d="M22.982,36.373V40.5h-0.533v-4.127H22.982z"/>
	<path fill="#010101" d="M24.581,39.202l-0.43,1.298h-0.551l1.402-4.127h0.643l1.409,4.127h-0.569l-0.441-1.298H24.581z
		 M25.934,38.785l-0.403-1.188c-0.093-0.27-0.154-0.515-0.215-0.753h-0.013c-0.062,0.245-0.128,0.496-0.208,0.747l-0.404,1.193
		H25.934z"/>
	<path fill="#010101" d="M27.663,40.5v-4.127h0.581l1.323,2.088c0.307,0.483,0.544,0.919,0.74,1.342l0.013-0.007
		c-0.05-0.551-0.062-1.053-0.062-1.695v-1.728h0.502V40.5h-0.539l-1.31-2.094c-0.288-0.46-0.563-0.932-0.772-1.379l-0.018,0.007
		c0.03,0.521,0.043,1.017,0.043,1.702V40.5H27.663L27.663,40.5z"/>
</g>
<g>
	<path fill="#010101" d="M13.643,26.862l-0.115-0.387C11.855,20.891,8.908,10.424,6.708,2.49L6.534,1.863l24.557,6.538l-0.057,0.335
		c-0.083,0.496-2.205,12.219-17.015,17.979L13.643,26.862z M7.601,2.918c2.127,7.664,4.882,17.441,6.524,22.955
		C27.032,20.688,29.8,10.905,30.233,8.944L7.601,2.918z"/>
	<path fill="#010101" d="M15.041,30.232h-0.313l-0.091-0.241c-0.142-0.379-0.375-1.096-0.692-2.132l-0.103-0.332l0.324-0.125
		C29.016,21.684,31.466,10.264,31.696,8.98l0.071-0.398l4.218,1.125l-0.115,0.371C30.719,26.529,18.808,30.232,15.041,30.232z
		 M14.759,27.971c0.203,0.655,0.369,1.169,0.488,1.514c3.805-0.131,14.811-3.837,19.793-19.259l-2.69-0.717
		C31.806,11.954,28.704,22.458,14.759,27.971z"/>
	<path fill="#010101" d="M17.185,21.159c-1.396,0-2.53-1.135-2.53-2.529c0-1.395,1.135-2.531,2.53-2.531
		c1.395,0,2.528,1.136,2.528,2.531C19.713,20.023,18.579,21.159,17.185,21.159z M17.185,16.844c-0.984,0-1.786,0.8-1.786,1.785
		c0,0.984,0.802,1.784,1.786,1.784c0.983,0,1.784-0.8,1.784-1.784C18.969,17.645,18.168,16.844,17.185,16.844z"/>
	<path fill="#010101" d="M16.825,12.71c-0.8,0-1.451-0.651-1.451-1.452c0-0.8,0.651-1.451,1.451-1.451s1.451,0.651,1.451,1.451
		C18.276,12.059,17.625,12.71,16.825,12.71z M16.825,10.553c-0.39,0-0.706,0.316-0.706,0.706c0,0.39,0.316,0.707,0.706,0.707
		s0.706-0.317,0.706-0.707C17.531,10.869,17.215,10.553,16.825,10.553z"/>
	<path fill="#010101" d="M22.937,15.047c-1.396,0-2.529-1.135-2.529-2.529c0-1.395,1.134-2.53,2.529-2.53s2.53,1.135,2.53,2.53
		C25.467,13.912,24.332,15.047,22.937,15.047z M22.937,10.732c-0.984,0-1.784,0.801-1.784,1.785c0,0.984,0.8,1.784,1.784,1.784
		c0.983,0,1.785-0.8,1.785-1.784C24.722,11.533,23.92,10.732,22.937,10.732z"/>
	<path fill="#010101" d="M11.61,8.755c-0.898,0-1.63-0.731-1.63-1.631c0-0.899,0.731-1.631,1.63-1.631
		c0.899,0,1.631,0.732,1.631,1.631C13.241,8.024,12.51,8.755,11.61,8.755z M11.61,6.239c-0.488,0-0.886,0.397-0.886,0.886
		S11.122,8.01,11.61,8.01s0.887-0.397,0.887-0.886S12.099,6.239,11.61,6.239z"/>
</g>
</svg>
