<?xml version="1.0" encoding="utf-8"?>
<!-- Generator: Adobe Illustrator 16.0.3, SVG Export Plug-In . SVG Version: 6.00 Build 0)  -->
<!DOCTYPE svg PUBLIC "-//W3C//DTD SVG 1.1//EN" "http://www.w3.org/Graphics/SVG/1.1/DTD/svg11.dtd" [
	<!ENTITY ns_flows "http://ns.adobe.com/Flows/1.0/">
	<!ENTITY ns_extend "http://ns.adobe.com/Extensibility/1.0/">
	<!ENTITY ns_ai "http://ns.adobe.com/AdobeIllustrator/10.0/">
	<!ENTITY ns_graphs "http://ns.adobe.com/Graphs/1.0/">
]>
<svg version="1.1" id="Layer_1" xmlns:x="&ns_extend;" xmlns:i="&ns_ai;" xmlns:graph="&ns_graphs;"
	 xmlns="http://www.w3.org/2000/svg" xmlns:xlink="http://www.w3.org/1999/xlink" xmlns:a="http://ns.adobe.com/AdobeSVGViewerExtensions/3.0/"
	 x="0px" y="0px" width="42.52px" height="42.52px" viewBox="0 0 42.52 42.52" enable-background="new 0 0 42.52 42.52"
	 xml:space="preserve">
<g>
	<path fill="#010101" d="M13.396,38.686c-0.03-0.558-0.065-1.227-0.061-1.724h-0.017c-0.137,0.468-0.304,0.965-0.504,1.516
		l-0.705,1.937h-0.392l-0.646-1.901c-0.189-0.562-0.349-1.077-0.462-1.551h-0.012c-0.012,0.497-0.042,1.166-0.077,1.765
		l-0.107,1.712h-0.49l0.278-3.991h0.658l0.68,1.93c0.167,0.492,0.302,0.931,0.403,1.346h0.018c0.101-0.403,0.242-0.841,0.42-1.346
		l0.711-1.93h0.657l0.249,3.991h-0.504L13.396,38.686z"/>
	<path fill="#010101" d="M16.862,38.566H15.31v1.439h1.729v0.433h-2.244v-3.991h2.156v0.432H15.31v1.262h1.552V38.566z"/>
	<path fill="#010101" d="M19.896,40.438l-0.509-0.883c-0.207-0.338-0.338-0.556-0.463-0.788h-0.011
		C18.8,39,18.688,39.212,18.48,39.562l-0.479,0.877h-0.593l1.221-2.02l-1.173-1.973h0.598l0.527,0.937
		c0.147,0.261,0.261,0.461,0.367,0.674h0.018c0.112-0.236,0.214-0.42,0.36-0.674l0.546-0.937h0.592l-1.214,1.942l1.243,2.05H19.896
		L19.896,40.438z"/>
	<path fill="#010101" d="M21.609,36.447v3.991h-0.516v-3.991H21.609z"/>
	<path fill="#010101" d="M25.3,40.309c-0.189,0.094-0.567,0.189-1.054,0.189c-1.125,0-1.973-0.711-1.973-2.021
		c0-1.249,0.848-2.097,2.086-2.097c0.497,0,0.811,0.106,0.946,0.178l-0.124,0.421c-0.195-0.095-0.474-0.166-0.805-0.166
		c-0.937,0-1.558,0.599-1.558,1.646c0,0.978,0.563,1.604,1.533,1.604c0.314,0,0.634-0.065,0.841-0.166L25.3,40.309z"/>
	<path fill="#010101" d="M26.617,39.184l-0.415,1.255H25.67l1.355-3.991h0.621l1.362,3.991h-0.551l-0.427-1.255H26.617z
		 M27.925,38.78l-0.391-1.149c-0.089-0.26-0.149-0.498-0.208-0.729h-0.012c-0.059,0.236-0.124,0.48-0.201,0.723l-0.39,1.155H27.925z
		"/>
	<path fill="#010101" d="M29.597,40.438v-3.991h0.563l1.28,2.02c0.296,0.468,0.526,0.888,0.717,1.297l0.012-0.006
		c-0.048-0.533-0.061-1.019-0.061-1.642v-1.669h0.486v3.991h-0.521l-1.267-2.025c-0.279-0.444-0.545-0.9-0.747-1.334l-0.018,0.007
		c0.03,0.503,0.042,0.983,0.042,1.646v1.706H29.597z"/>
</g>
<g>
	<path fill="#010101" d="M19.489,6.271l0.301-0.527c0.416-0.728,0.802-1.163,1.146-1.295c0.067-0.025,0.128-0.037,0.188-0.037h0.076
		l0.125,0.049c0.222,0.111,0.458,0.167,0.701,0.167c1.319,0,2.654-1.558,3.156-2.144c0.253-0.296,0.56-0.417,0.937-0.35
		c0.456,0.08,0.93,0.436,1.234,0.927l0.214,0.347l-0.383,0.135c-0.481,0.171-0.975,0.529-1.506,1.096
		c-1.457,1.556-2.333,1.556-3.922,1.556H21.62c-0.431,0-0.949,0.005-1.526,0.04L19.489,6.271z M21.103,5.079
		c-0.079,0.054-0.229,0.21-0.415,0.471c0.342-0.01,0.656-0.012,0.933-0.012h0.103c1.578,0,2.216,0,3.479-1.348
		c0.463-0.494,0.909-0.853,1.355-1.086c-0.173-0.173-0.372-0.294-0.55-0.325c-0.098-0.017-0.185-0.034-0.325,0.127
		c-0.557,0.652-2.034,2.377-3.655,2.377C21.706,5.282,21.396,5.213,21.103,5.079z"/>
	<path fill="#010101" d="M13.105,16.499l0.771-2.481c0.176-0.565,0.228-1.219,0.16-1.996C13.773,9,15.437,7.308,19.12,6.848
		c0.994-0.125,1.778-0.127,2.47-0.129h0.128c1.667-0.006,2.738-0.009,4.345-1.722c0.694-0.74,1.203-1.041,1.759-1.041
		c0.415,0,0.795,0.168,1.276,0.382c0.541,0.241,1.212,0.54,2.068,0.593c1.857,0.117,3.007,0.269,3.239,1.85l0.089,0.604L33.94,7.124
		c-4.252-2.007-15.049-0.011-19.472,7.163L13.105,16.499z M22.011,7.372c-0.083,0-0.166,0.001-0.25,0.001l-0.169,0
		c-0.673,0.002-1.436,0.004-2.39,0.124c-3.353,0.419-4.744,1.796-4.512,4.467c0.024,0.282,0.035,0.55,0.03,0.805
		C16.606,10.31,19.239,8.529,22.011,7.372z M29.878,5.724c1.401,0,2.656,0.185,3.679,0.539c-0.289-0.442-0.929-0.583-2.433-0.678
		c-0.974-0.061-1.704-0.385-2.291-0.647c-0.428-0.19-0.735-0.327-1.012-0.327c-0.246,0-0.591,0.1-1.28,0.834
		c-0.273,0.292-0.535,0.54-0.79,0.75C27.189,5.878,28.593,5.724,29.878,5.724z"/>
	<path fill="#010101" d="M9.012,17.825L8.796,17.55c-0.337-0.431-0.725-1.026-0.653-1.416c0.029-0.141,0.126-0.242,0.287-0.311
		c1.407-0.625,1.601-0.96,2.064-3.584c0.101-0.57,0.342-0.958,0.717-1.153c0.549-0.283,1.545-0.096,2.08,0.132l0.196,0.084
		l0.002,0.213c0.002,0.187,0.009,0.373,0.024,0.556c0.208,2.378-0.798,3.04-2.191,3.958c-0.495,0.326-1.028,0.678-1.554,1.129
		c-0.17,0.146-0.336,0.291-0.498,0.435L9.012,17.825z M8.819,16.366c0.043,0.104,0.132,0.275,0.286,0.5
		c0.078-0.068,0.157-0.137,0.237-0.206c0.557-0.478,1.108-0.842,1.596-1.163c1.404-0.925,2.097-1.381,1.922-3.371
		c-0.01-0.126-0.017-0.253-0.021-0.38c-0.413-0.142-1.032-0.231-1.326-0.079c-0.188,0.098-0.311,0.322-0.375,0.686
		C10.681,14.95,10.419,15.628,8.819,16.366z"/>
	<path fill="#010101" d="M9.246,27.428l-0.302-0.253c-0.302-0.252-1.804-1.544-1.62-2.207l0.029-0.107l0.089-0.067
		c0.517-0.388,0.988-0.822,1.399-1.291l0.251-0.286l0.246,0.291c1.249,1.482,0.782,2.329,0.191,3.402L9.246,27.428z M7.984,25.205
		c0.099,0.176,0.447,0.637,1.074,1.202c0.441-0.811,0.639-1.309,0.011-2.183C8.736,24.572,8.373,24.901,7.984,25.205z"/>
	<path fill="#010101" d="M12.777,29.2l-0.564-0.038c-0.521-0.036-2.251-0.196-2.624-0.772c-0.118-0.192-0.029-0.387,0-0.452
		c0.125-0.273,0.265-0.528,0.402-0.776c0.662-1.198,1.345-2.44-0.75-4.533c-0.851-0.852-1.252-1.591-1.226-2.258
		c0.021-0.55,0.338-1.123,0.996-1.805l0.055-0.057l0.075-0.025c0.044-0.015,0.076-0.033,0.098-0.055
		c0.027-0.027,0.045-0.057,0.06-0.098l0.027-0.074l0.057-0.054c0.229-0.215,0.476-0.431,0.729-0.648
		c0.511-0.438,1.015-0.769,1.502-1.089c0.563-0.372,1.145-0.755,1.588-1.255l1.707-1.926l-1.17,2.292
		c-2.683,5.255-2.54,10.373-1.208,13.114L12.777,29.2z M10.234,28.104c0.201,0.105,0.699,0.26,1.478,0.353
		c-0.252-0.634-0.45-1.363-0.581-2.167c-0.148,0.43-0.364,0.823-0.566,1.188C10.452,27.681,10.338,27.888,10.234,28.104z
		 M9.434,19.072c-0.5,0.527-0.75,0.96-0.764,1.323C8.651,20.863,9,21.459,9.704,22.164c0.599,0.598,0.998,1.146,1.25,1.649
		c0.023-2.162,0.486-4.63,1.561-7.164c-0.18,0.125-0.361,0.245-0.541,0.363c-0.471,0.309-0.957,0.629-1.437,1.039
		c-0.227,0.194-0.447,0.387-0.655,0.58c-0.046,0.1-0.104,0.186-0.18,0.259C9.63,18.964,9.54,19.025,9.434,19.072z"/>
	<path fill="#010101" d="M15.093,30.248c-0.496,0-1.23-0.247-1.909-1.425c-1.586-2.758-1.58-8.599,1.556-13.991
		c3.17-5.447,10.069-7.928,15.138-7.928c2.295,0,4.142,0.552,4.94,1.476c0.307,0.355,0.432,0.725,0.382,1.131
		c-0.188,1.538-2.844,3.407-5.411,5.214c-2.268,1.595-4.598,3.236-5.615,4.851c-0.359,0.571-0.734,1.188-1.123,1.829l-0.063,0.103
		c-2.226,3.67-4.996,8.239-7.636,8.718C15.264,30.241,15.178,30.248,15.093,30.248z M29.878,7.56
		c-4.889,0-11.533,2.379-14.571,7.602c-3.013,5.179-3.049,10.736-1.555,13.334c0.45,0.781,0.979,1.174,1.485,1.085
		c2.349-0.428,5.148-5.044,7.19-8.413l0.063-0.104c0.389-0.642,0.767-1.263,1.128-1.837c1.088-1.726,3.473-3.404,5.779-5.028
		c2.233-1.572,4.998-3.518,5.151-4.767c0.027-0.221-0.04-0.408-0.227-0.624C33.656,8.039,31.954,7.56,29.878,7.56z"/>
</g>
</svg>
