<?xml version="1.0" encoding="utf-8"?>
<!-- Generator: Adobe Illustrator 16.0.3, SVG Export Plug-In . SVG Version: 6.00 Build 0)  -->
<!DOCTYPE svg PUBLIC "-//W3C//DTD SVG 1.1//EN" "http://www.w3.org/Graphics/SVG/1.1/DTD/svg11.dtd" [
	<!ENTITY ns_flows "http://ns.adobe.com/Flows/1.0/">
	<!ENTITY ns_extend "http://ns.adobe.com/Extensibility/1.0/">
	<!ENTITY ns_ai "http://ns.adobe.com/AdobeIllustrator/10.0/">
	<!ENTITY ns_graphs "http://ns.adobe.com/Graphs/1.0/">
]>
<svg version="1.1" id="Layer_1" xmlns:x="&ns_extend;" xmlns:i="&ns_ai;" xmlns:graph="&ns_graphs;"
	 xmlns="http://www.w3.org/2000/svg" xmlns:xlink="http://www.w3.org/1999/xlink" xmlns:a="http://ns.adobe.com/AdobeSVGViewerExtensions/3.0/"
	 x="0px" y="0px" width="42.52px" height="42.52px" viewBox="0 0 42.52 42.52" enable-background="new 0 0 42.52 42.52"
	 xml:space="preserve">
<g>
	<path fill="#010101" d="M8.754,39.2l-0.425,1.289H7.781l1.392-4.097h0.638l1.397,4.097h-0.565L10.205,39.2H8.754z M10.097,38.787
		l-0.402-1.179c-0.091-0.267-0.151-0.511-0.211-0.748H9.471c-0.061,0.243-0.128,0.492-0.207,0.742l-0.4,1.185H10.097z"/>
	<path fill="#010101" d="M15.239,38.689c-0.03-0.571-0.067-1.258-0.062-1.769H15.16c-0.14,0.48-0.31,0.991-0.517,1.556l-0.724,1.987
		h-0.4l-0.662-1.95c-0.195-0.577-0.359-1.106-0.476-1.593H12.37c-0.012,0.511-0.042,1.197-0.079,1.811l-0.109,1.758h-0.505
		l0.286-4.097h0.674l0.699,1.981c0.171,0.505,0.311,0.954,0.414,1.38h0.018c0.104-0.414,0.25-0.863,0.432-1.38l0.729-1.981h0.674
		l0.256,4.097h-0.518L15.239,38.689z"/>
	<path fill="#010101" d="M18.796,38.568h-1.59v1.477h1.773v0.444h-2.302v-4.097h2.211v0.444h-1.682v1.294h1.59V38.568z"/>
	<path fill="#010101" d="M19.667,36.447c0.267-0.055,0.65-0.086,1.015-0.086c0.564,0,0.93,0.104,1.185,0.335
		c0.207,0.183,0.322,0.462,0.322,0.777c0,0.541-0.339,0.9-0.771,1.046v0.018c0.316,0.11,0.505,0.401,0.601,0.827
		c0.134,0.57,0.23,0.966,0.316,1.125h-0.547c-0.066-0.116-0.158-0.469-0.273-0.979c-0.121-0.564-0.341-0.778-0.82-0.795h-0.498
		v1.774h-0.528V36.447z M20.196,38.313h0.541c0.564,0,0.924-0.311,0.924-0.778c0-0.528-0.383-0.76-0.942-0.766
		c-0.255,0-0.438,0.025-0.522,0.049V38.313z"/>
	<path fill="#010101" d="M23.466,36.393v4.097h-0.528v-4.097H23.466z"/>
	<path fill="#010101" d="M27.254,40.354c-0.195,0.098-0.583,0.195-1.082,0.195c-1.155,0-2.023-0.729-2.023-2.073
		c0-1.282,0.868-2.151,2.139-2.151c0.512,0,0.832,0.109,0.973,0.183l-0.128,0.432c-0.201-0.097-0.485-0.171-0.826-0.171
		c-0.96,0-1.599,0.614-1.599,1.689c0,1.003,0.577,1.647,1.574,1.647c0.322,0,0.649-0.067,0.863-0.171L27.254,40.354z"/>
	<path fill="#010101" d="M28.604,39.2l-0.425,1.289h-0.548l1.393-4.097h0.637l1.398,4.097h-0.565L30.057,39.2H28.604z
		 M29.947,38.787l-0.402-1.179c-0.09-0.267-0.151-0.511-0.211-0.748h-0.013c-0.061,0.243-0.128,0.492-0.207,0.742l-0.401,1.185
		H29.947z"/>
	<path fill="#010101" d="M31.663,40.489v-4.097h0.577l1.313,2.072c0.304,0.48,0.54,0.912,0.734,1.331L34.3,39.79
		c-0.047-0.547-0.06-1.046-0.06-1.684v-1.714h0.498v4.097h-0.535l-1.3-2.079c-0.286-0.456-0.56-0.924-0.766-1.368l-0.019,0.007
		c0.03,0.517,0.043,1.009,0.043,1.688v1.751L31.663,40.489L31.663,40.489z"/>
</g>
<g>
	<path fill="#010101" d="M20.36,26.17C20.359,26.17,20.361,26.17,20.36,26.17c-0.263,0-0.526-0.003-0.789-0.011
		C13.712,25.99,9.02,24.643,7.328,22.646c-0.546-0.646-0.773-1.333-0.675-2.046c0.347-2.528,3.595-3.336,6.205-3.985
		c1.609-0.4,3.129-0.778,3.516-1.422c1.061-1.768,4.833-2.397,8.009-2.397c0.887,0,1.774,0.046,2.64,0.137
		c4.428,0.466,8.824,2.853,8.66,6.512C35.529,22.901,28.082,26.17,20.36,26.17z M24.383,13.395c-3.786,0-6.727,0.827-7.495,2.106
		c-0.515,0.857-2.076,1.246-3.885,1.696c-2.561,0.637-5.464,1.359-5.755,3.486c-0.074,0.537,0.107,1.067,0.538,1.576
		c1.586,1.872,6.108,3.137,11.803,3.302c7.556,0.224,15.353-2.928,15.499-6.143c0.144-3.255-4.08-5.463-8.128-5.89
		C26.114,13.439,25.248,13.395,24.383,13.395z"/>
	<path fill="#010101" d="M19.614,30.036c-0.439,0-0.881-0.007-1.329-0.02c-6.41-0.193-10.138-2.485-11.213-3.672
		c-0.308-0.34-0.456-0.638-0.44-0.884c0.056-0.812,0.019-4.777,0.019-4.817c-0.001-0.166,0.131-0.301,0.297-0.302
		c0.001,0,0.002,0,0.003,0c0.164,0,0.298,0.132,0.3,0.296s0.036,4.03-0.021,4.863c0.012,0.491,3.389,3.686,11.073,3.916
		c7.839,0.238,14.609-1.721,16.841-4.865c0.236-0.37,0.158-3.486-0.054-6.157c-0.013-0.165,0.11-0.309,0.275-0.322
		c0.153-0.007,0.308,0.109,0.32,0.275c0.109,1.355,0.422,5.831-0.047,6.542C33.384,28.067,27.176,30.036,19.614,30.036z"/>
	<path fill="#010101" d="M12.092,22.906c-0.045,0-0.091-0.01-0.133-0.031c-0.148-0.073-0.208-0.254-0.134-0.401l1.134-2.269
		c0.073-0.147,0.254-0.208,0.402-0.134c0.148,0.074,0.208,0.254,0.134,0.403l-1.134,2.268
		C12.309,22.846,12.203,22.906,12.092,22.906z"/>
	<path fill="#010101" d="M17.386,24.043c-0.037,0-0.074-0.007-0.11-0.021c-0.154-0.062-0.229-0.234-0.168-0.389l2.571-6.505
		c0.061-0.153,0.236-0.23,0.389-0.168c0.153,0.061,0.229,0.234,0.168,0.388l-2.57,6.506C17.618,23.971,17.505,24.043,17.386,24.043z
		"/>
	<path fill="#010101" d="M22.982,24.043c-0.032,0-0.064-0.006-0.097-0.017c-0.156-0.053-0.24-0.223-0.187-0.38l2.57-7.563
		c0.054-0.157,0.224-0.24,0.381-0.188c0.157,0.054,0.24,0.224,0.187,0.381l-2.57,7.563C23.224,23.964,23.107,24.043,22.982,24.043z"
		/>
	<path fill="#010101" d="M29.183,22.151c-0.032,0-0.063-0.005-0.098-0.017c-0.156-0.054-0.238-0.224-0.186-0.381l1.589-4.614
		c0.054-0.156,0.223-0.239,0.382-0.185c0.155,0.054,0.239,0.224,0.185,0.381l-1.589,4.614
		C29.423,22.073,29.307,22.151,29.183,22.151z"/>
	<path fill="#010101" d="M22.302,11.336c-0.011,0-0.021,0-0.032-0.001c-0.842-0.087-2.474-0.667-2.611-2.238
		c-0.087-1.011,0.728-1.647,1.516-2.262c0.776-0.605,1.509-1.176,1.509-2.075c0-1.766-2.017-2.184-2.102-2.201
		c-0.162-0.032-0.268-0.189-0.237-0.352s0.186-0.268,0.351-0.237c0.895,0.174,2.587,0.979,2.587,2.79
		c0,1.191-0.925,1.912-1.74,2.548c-0.723,0.563-1.346,1.05-1.287,1.738c0.128,1.468,1.998,1.685,2.077,1.693
		c0.164,0.018,0.284,0.165,0.268,0.33C22.582,11.223,22.452,11.336,22.302,11.336z"/>
	<path fill="#010101" d="M27.114,9.952c-0.01,0-0.021,0-0.031-0.001c-0.688-0.071-2.019-0.546-2.131-1.835
		c-0.073-0.837,0.588-1.352,1.228-1.851c0.604-0.472,1.175-0.917,1.175-1.601c0-1.36-1.604-1.687-1.62-1.69
		c-0.162-0.031-0.269-0.188-0.237-0.351c0.031-0.163,0.191-0.269,0.351-0.237c0.729,0.141,2.106,0.798,2.106,2.278
		c0,0.977-0.747,1.559-1.406,2.073c-0.56,0.437-1.043,0.814-0.999,1.327c0.098,1.124,1.58,1.289,1.596,1.291
		c0.165,0.018,0.284,0.165,0.268,0.329C27.396,9.837,27.266,9.952,27.114,9.952z"/>
	<path fill="#010101" d="M17.451,10.437c-0.01,0-0.021,0-0.032-0.001c-0.688-0.071-2.019-0.547-2.13-1.835
		c-0.073-0.837,0.588-1.353,1.227-1.851c0.605-0.472,1.176-0.917,1.176-1.601c0-1.352-1.555-1.677-1.622-1.69
		c-0.162-0.032-0.268-0.189-0.236-0.352c0.032-0.162,0.189-0.267,0.351-0.236c0.729,0.142,2.106,0.8,2.106,2.278
		c0,0.977-0.747,1.56-1.406,2.074c-0.56,0.437-1.043,0.813-0.999,1.326c0.097,1.123,1.581,1.29,1.596,1.292
		c0.164,0.017,0.284,0.164,0.267,0.329C17.732,10.323,17.602,10.437,17.451,10.437z"/>
</g>
</svg>
