<?xml version="1.0" encoding="utf-8"?>
<!-- Generator: Adobe Illustrator 16.0.3, SVG Export Plug-In . SVG Version: 6.00 Build 0)  -->
<!DOCTYPE svg PUBLIC "-//W3C//DTD SVG 1.1//EN" "http://www.w3.org/Graphics/SVG/1.1/DTD/svg11.dtd" [
	<!ENTITY ns_flows "http://ns.adobe.com/Flows/1.0/">
	<!ENTITY ns_extend "http://ns.adobe.com/Extensibility/1.0/">
	<!ENTITY ns_ai "http://ns.adobe.com/AdobeIllustrator/10.0/">
	<!ENTITY ns_graphs "http://ns.adobe.com/Graphs/1.0/">
]>
<svg version="1.1" id="Layer_1" xmlns:x="&ns_extend;" xmlns:i="&ns_ai;" xmlns:graph="&ns_graphs;"
	 xmlns="http://www.w3.org/2000/svg" xmlns:xlink="http://www.w3.org/1999/xlink" xmlns:a="http://ns.adobe.com/AdobeSVGViewerExtensions/3.0/"
	 x="0px" y="0px" width="42.52px" height="42.52px" viewBox="0 0 42.52 42.52" enable-background="new 0 0 42.52 42.52"
	 xml:space="preserve">
<g>
	<path fill="#010101" d="M14.755,39.201l-0.415,1.257h-0.534l1.358-3.996h0.623l1.363,3.996H16.6l-0.427-1.257H14.755z
		 M16.065,38.799l-0.392-1.15c-0.089-0.261-0.148-0.498-0.207-0.729h-0.012c-0.06,0.237-0.124,0.48-0.202,0.724l-0.392,1.156H16.065
		z"/>
	<path fill="#010101" d="M17.668,39.83c0.231,0.143,0.569,0.261,0.925,0.261c0.528,0,0.836-0.278,0.836-0.682
		c0-0.373-0.214-0.587-0.753-0.794c-0.652-0.231-1.056-0.569-1.056-1.133c0-0.623,0.516-1.086,1.292-1.086
		c0.409,0,0.705,0.096,0.883,0.196l-0.143,0.421c-0.13-0.071-0.397-0.189-0.759-0.189c-0.545,0-0.753,0.326-0.753,0.599
		c0,0.373,0.243,0.557,0.794,0.771c0.676,0.261,1.02,0.588,1.02,1.175c0,0.616-0.457,1.15-1.4,1.15c-0.385,0-0.806-0.113-1.02-0.256
		L17.668,39.83z"/>
	<path fill="#010101" d="M21.181,36.462v3.996h-0.516v-3.996H21.181z"/>
	<path fill="#010101" d="M22.729,39.201l-0.415,1.257H21.78l1.358-3.996h0.622l1.364,3.996h-0.552l-0.427-1.257H22.729z
		 M24.039,38.799l-0.392-1.15c-0.089-0.261-0.147-0.498-0.207-0.729h-0.012c-0.06,0.237-0.124,0.48-0.202,0.724l-0.392,1.156H24.039
		z"/>
	<path fill="#010101" d="M25.714,40.459v-3.997h0.563l1.281,2.023c0.297,0.468,0.527,0.889,0.717,1.298l0.013-0.006
		c-0.048-0.534-0.06-1.021-0.06-1.643v-1.673h0.485v3.997h-0.521l-1.269-2.028c-0.278-0.445-0.546-0.901-0.746-1.334l-0.019,0.006
		c0.03,0.504,0.041,0.984,0.041,1.648v1.707L25.714,40.459L25.714,40.459z"/>
</g>
<g>
	<path fill="#010101" d="M32.772,16.541c-0.04-0.044-0.097-0.07-0.156-0.07h-1.755c0.001-0.027,0.002-0.053,0.002-0.08
		c0-1.73-1.354-3.15-3.059-3.257c-0.016-0.244-0.058-0.48-0.125-0.708l4.26-7.349c0.054-0.092,0.03-0.211-0.056-0.275l-1.512-1.132
		c-0.051-0.037-0.113-0.051-0.174-0.037c-0.062,0.013-0.112,0.053-0.142,0.108l-3.608,6.946c-0.254-0.182-0.532-0.328-0.832-0.432
		l0.627-8.027c0.005-0.062-0.019-0.123-0.063-0.167s-0.104-0.066-0.167-0.061l-1.882,0.16c-0.107,0.01-0.19,0.098-0.194,0.205
		l-0.248,7.824c-0.696,0.19-1.313,0.605-1.754,1.197c-0.914-0.849-2.092-1.312-3.344-1.312c-1.837,0-3.494,1.002-4.353,2.625
		c-1.575,0.25-2.749,1.614-2.749,3.22c0,0.188,0.018,0.372,0.048,0.551h-1.396c-0.059,0-0.115,0.024-0.155,0.067
		c-0.041,0.043-0.061,0.1-0.057,0.158c0.008,0.115,0.202,2.835,1.677,5.603c0.882,1.656,2.35,3.518,4.736,4.63v2.931
		c0,0.117,0.094,0.211,0.211,0.211h9.242c0.117,0,0.212-0.094,0.212-0.211v-2.914c2.445-1.11,3.989-2.979,4.936-4.642
		c1.575-2.765,1.869-5.485,1.881-5.6C32.832,16.644,32.813,16.585,32.772,16.541z M30.578,22.095
		c-2.045,3.591-5.208,5.411-9.4,5.411c-4.186,0-7.277-1.814-9.19-5.394c-1.197-2.24-1.532-4.51-1.613-5.219h22
		C32.268,17.609,31.85,19.863,30.578,22.095z M16.767,29.648v-2.533c1.229,0.503,2.685,0.813,4.411,0.813
		c1.711,0,3.17-0.306,4.409-0.802v2.522L16.767,29.648L16.767,29.648z M11.914,15.92c0-1.43,1.07-2.642,2.489-2.816
		c0.071-0.009,0.131-0.053,0.164-0.115c0.77-1.536,2.313-2.49,4.025-2.49c1.223,0,2.368,0.484,3.225,1.363
		c0.044,0.047,0.109,0.07,0.173,0.063c0.064-0.007,0.123-0.042,0.157-0.097c0.525-0.832,1.423-1.329,2.401-1.329
		c1.565,0,2.841,1.274,2.841,2.841c0,0.117,0.095,0.211,0.211,0.211c1.567,0,2.841,1.275,2.841,2.841
		c0,0.027-0.001,0.053-0.002,0.08H11.967C11.933,16.292,11.914,16.109,11.914,15.92z M25.802,2.444l-0.6,7.699
		c-0.212-0.042-0.43-0.066-0.654-0.066c-0.146,0-0.29,0.01-0.433,0.029l0.24-7.538L25.802,2.444z M31.48,5.028l-3.994,6.891
		c-0.176-0.36-0.415-0.685-0.705-0.958l3.536-6.804L31.48,5.028z"/>
</g>
</svg>
