<?xml version="1.0" encoding="utf-8"?>
<!-- Generator: Adobe Illustrator 16.0.3, SVG Export Plug-In . SVG Version: 6.00 Build 0)  -->
<!DOCTYPE svg PUBLIC "-//W3C//DTD SVG 1.1//EN" "http://www.w3.org/Graphics/SVG/1.1/DTD/svg11.dtd" [
	<!ENTITY ns_flows "http://ns.adobe.com/Flows/1.0/">
	<!ENTITY ns_extend "http://ns.adobe.com/Extensibility/1.0/">
	<!ENTITY ns_ai "http://ns.adobe.com/AdobeIllustrator/10.0/">
	<!ENTITY ns_graphs "http://ns.adobe.com/Graphs/1.0/">
]>
<svg version="1.1" id="Layer_1" xmlns:x="&ns_extend;" xmlns:i="&ns_ai;" xmlns:graph="&ns_graphs;"
	 xmlns="http://www.w3.org/2000/svg" xmlns:xlink="http://www.w3.org/1999/xlink" xmlns:a="http://ns.adobe.com/AdobeSVGViewerExtensions/3.0/"
	 x="0px" y="0px" width="42.52px" height="42.52px" viewBox="0 0 42.52 42.52" enable-background="new 0 0 42.52 42.52"
	 xml:space="preserve">
<g>
	<path fill="#010101" d="M12.79,36.338v4.156h-0.536v-4.156H12.79z"/>
	<path fill="#010101" d="M13.729,40.494v-4.156h0.585l1.333,2.103c0.309,0.487,0.548,0.926,0.746,1.351l0.012-0.006
		c-0.049-0.555-0.062-1.062-0.062-1.708v-1.739h0.506v4.156h-0.543l-1.319-2.109c-0.29-0.463-0.567-0.937-0.777-1.387l-0.019,0.005
		c0.031,0.524,0.044,1.024,0.044,1.715v1.775L13.729,40.494L13.729,40.494z"/>
	<path fill="#010101" d="M17.787,36.394c0.327-0.05,0.716-0.086,1.142-0.086c0.771,0,1.318,0.179,1.683,0.518
		c0.37,0.34,0.586,0.82,0.586,1.491c0,0.679-0.21,1.234-0.599,1.616c-0.388,0.389-1.029,0.599-1.837,0.599
		c-0.382,0-0.702-0.019-0.975-0.05V36.394z M18.324,40.068c0.136,0.024,0.332,0.031,0.542,0.031c1.146,0,1.77-0.642,1.77-1.764
		c0.007-0.98-0.549-1.604-1.683-1.604c-0.277,0-0.487,0.025-0.629,0.056V40.068z"/>
	<path fill="#010101" d="M22.434,36.338v4.156h-0.538v-4.156H22.434z"/>
	<path fill="#010101" d="M24.043,39.188l-0.432,1.307h-0.555l1.412-4.156h0.647l1.418,4.156h-0.573l-0.444-1.307H24.043z
		 M25.405,38.768l-0.406-1.196c-0.093-0.271-0.155-0.519-0.216-0.759h-0.013c-0.062,0.247-0.129,0.5-0.209,0.752l-0.407,1.203
		H25.405z"/>
	<path fill="#010101" d="M27.146,40.494v-4.156h0.586l1.332,2.103c0.309,0.487,0.549,0.926,0.746,1.351l0.012-0.006
		c-0.05-0.555-0.062-1.062-0.062-1.708v-1.739h0.505v4.156h-0.542l-1.319-2.109c-0.29-0.463-0.567-0.937-0.777-1.387l-0.019,0.005
		c0.031,0.524,0.043,1.024,0.043,1.715v1.775L27.146,40.494L27.146,40.494z"/>
</g>
<g>
	<path fill="#010101" d="M21.049,30.15c-8.587,0-15.572-5.998-15.572-13.371c0-0.141-0.004-0.308-0.007-0.474
		c-0.016-0.768-0.015-0.917,0.11-1.045l0.092-0.094l0.138-0.003v0.313l0.288,0.099C6.082,15.66,6.09,16.04,6.095,16.292
		c0.003,0.172,0.007,0.343,0.007,0.488c0,7.028,6.705,12.745,14.947,12.745c8.231,0,14.926-5.699,14.926-12.706
		c0-0.677-0.023-1.137-0.046-1.226l0.282-0.069v-0.36c0.36,0,0.39,0.25,0.39,1.655C36.602,24.169,29.625,30.15,21.049,30.15z"/>
	<path fill="#010101" d="M35.731,16.123l0.067-0.382c0.038-0.209,0.056-0.398,0.056-0.577c0-1.584-1.179-3.144-3.319-4.391
		l-0.259-0.152l0.14-0.265c0.199-0.376,0.47-0.682,0.805-0.909c0.411-0.277,0.904-0.424,1.427-0.424c1.174,0,2.388,0.717,3.17,1.871
		c1.164,1.724,0.997,3.878-0.371,4.803c-0.376,0.254-0.823,0.392-1.327,0.412L35.731,16.123z M33.126,10.397
		c2.166,1.338,3.354,3.022,3.354,4.766c0,0.09-0.003,0.182-0.01,0.275c0.232-0.049,0.442-0.136,0.626-0.26
		c1.083-0.732,1.174-2.497,0.203-3.935c-0.667-0.984-1.682-1.596-2.651-1.596c-0.402,0-0.766,0.106-1.076,0.317
		C33.4,10.081,33.251,10.226,33.126,10.397z"/>
	<path fill="#010101" d="M12.668,15.68c-0.514,0-0.931-0.393-0.931-0.877s0.417-0.877,0.931-0.877c0.513,0,0.931,0.394,0.931,0.877
		S13.182,15.68,12.668,15.68z M12.668,14.552c-0.168,0-0.306,0.113-0.306,0.251c0,0.139,0.137,0.251,0.306,0.251
		c0.168,0,0.305-0.112,0.305-0.251C12.974,14.665,12.836,14.552,12.668,14.552z"/>
	<path fill="#010101" d="M23.573,15.269c-0.628,0-1.141-0.501-1.141-1.117c0-0.616,0.513-1.117,1.141-1.117
		c0.629,0,1.142,0.5,1.142,1.117C24.715,14.768,24.202,15.269,23.573,15.269z M23.573,13.661c-0.284,0-0.515,0.22-0.515,0.491
		c0,0.271,0.23,0.491,0.515,0.491s0.516-0.221,0.516-0.491C24.089,13.881,23.857,13.661,23.573,13.661z"/>
	<path fill="#010101" d="M15.008,20.065c-0.981,0-1.779-0.618-1.779-1.379c0-0.76,0.798-1.379,1.779-1.379s1.779,0.619,1.779,1.379
		C16.788,19.447,15.989,20.065,15.008,20.065z M15.008,17.933c-0.625,0-1.154,0.345-1.154,0.753s0.528,0.754,1.154,0.754
		s1.154-0.345,1.154-0.754S15.634,17.933,15.008,17.933z"/>
	<path fill="#010101" d="M28.088,18.75c-0.945,0-1.714-0.648-1.714-1.447c0-0.797,0.769-1.447,1.714-1.447
		c0.944,0,1.712,0.649,1.712,1.447C29.8,18.102,29.032,18.75,28.088,18.75z M28.088,16.482c-0.6,0-1.088,0.368-1.088,0.821
		c0,0.453,0.488,0.821,1.088,0.821c0.599,0,1.087-0.369,1.087-0.821C29.175,16.851,28.687,16.482,28.088,16.482z"/>
	<path fill="#010101" d="M24.399,20.467c-0.643,0-1.146-0.404-1.146-0.918c0-0.515,0.503-0.918,1.146-0.918s1.146,0.403,1.146,0.918
		C25.545,20.063,25.042,20.467,24.399,20.467z M24.399,19.255c-0.299,0-0.521,0.155-0.521,0.293s0.222,0.293,0.521,0.293
		c0.298,0,0.521-0.154,0.521-0.293S24.697,19.255,24.399,19.255z"/>
	<path fill="#010101" d="M18.944,16.764l-0.896-2.814l1.43-0.456l0.896,2.814L18.944,16.764z M18.833,14.356l0.517,1.623
		l0.238-0.076l-0.517-1.623L18.833,14.356z"/>
	<path fill="#010101" d="M30.421,21.299l-2.826-0.862l0.438-1.435l2.824,0.862L30.421,21.299z M28.375,20.021l1.63,0.497
		l0.072-0.239l-1.629-0.497L28.375,20.021z"/>
	<path fill="#010101" d="M12.278,19.81l-1.49-0.175l0.344-2.933l1.49,0.175L12.278,19.81z M11.481,19.086l0.248,0.03l0.198-1.691
		l-0.248-0.029L11.481,19.086z"/>
	<path fill="#010101" d="M6.356,15.503l-0.368-0.071c-0.361-0.07-0.661-0.188-0.915-0.36c-1.368-0.925-1.535-3.079-0.371-4.803
		c0.781-1.154,1.996-1.871,3.168-1.871c0.498,0,0.972,0.134,1.369,0.387l0.057,0.037c0.451,0.305,0.778,0.751,0.973,1.328
		l0.085,0.251l-0.234,0.125c-2.407,1.28-3.742,2.914-3.76,4.603L6.356,15.503z M7.871,9.023c-0.968,0-1.984,0.611-2.65,1.596
		c-0.971,1.437-0.88,3.202,0.203,3.934c0.1,0.068,0.211,0.124,0.336,0.17c0.196-1.72,1.534-3.339,3.821-4.616
		C9.43,9.78,9.218,9.523,8.948,9.341C8.603,9.121,8.255,9.023,7.871,9.023z"/>
	<polygon fill="#010101" points="29.285,12.354 28.763,12.011 34.21,3.694 32.88,2.813 27.576,11.843 27.037,11.526 32.675,1.927 
		35.073,3.516 	"/>
	<path fill="#010101" d="M21.01,22.878c-3.633,0-7.038-0.636-9.587-1.788c-3.611-1.438-5.69-3.6-5.69-5.926
		c0-4.196,6.896-7.61,15.374-7.61c2.793,0,5.529,0.371,7.909,1.072l0.383,0.113l-1.822,3.104l-0.539-0.317l1.415-2.41
		c-2.23-0.613-4.762-0.937-7.345-0.937c-8.132,0-14.748,3.133-14.748,6.984c0,2.058,1.935,4.007,5.309,5.351
		c2.483,1.123,5.796,1.739,9.342,1.739c2.799,0,5.475-0.39,7.738-1.126c4.387-1.275,7.106-3.56,7.106-5.963
		c0-1.988-1.815-3.882-4.992-5.219l-1.577,2.409l-0.522-0.343l1.859-2.84l0.237,0.096c3.572,1.442,5.62,3.592,5.62,5.897
		c0,2.734-2.821,5.188-7.548,6.562C26.617,22.479,23.874,22.878,21.01,22.878z"/>
	<path fill="#010101" d="M21.107,22.774c-3.518,0-6.952-0.597-9.67-1.679c-2.536-1.148-3.926-2.68-3.926-4.321
		c0-3.423,5.93-6.104,13.5-6.104c2.222,0,4.424,0.246,6.37,0.71l0.411,0.098l-0.693,1.179c0.176,0.407,0.315,0.829,0.417,1.256
		l1.38-2.105l0.229,0.078c3.423,1.153,5.386,2.935,5.386,4.888c0,1.992-2.03,3.795-5.569,4.948
		C26.572,22.411,23.867,22.774,21.107,22.774z M21.01,11.296c-6.979,0-12.874,2.509-12.874,5.479c0,1.381,1.259,2.71,3.544,3.745
		c2.633,1.048,5.985,1.628,9.426,1.628c2.701,0,5.347-0.354,7.65-1.024c3.207-1.043,5.127-2.671,5.127-4.35
		c0-1.602-1.763-3.169-4.731-4.217l-1.483,2.264l-0.251-0.131c-0.091-0.047-0.185-0.093-0.278-0.137l-0.145-0.068l-0.03-0.155
		c-0.104-0.535-0.273-1.06-0.503-1.563l-0.067-0.148l0.426-0.725C25.026,11.502,23.027,11.296,21.01,11.296z"/>
</g>
</svg>
