<?xml version="1.0" encoding="utf-8"?>
<!-- Generator: Adobe Illustrator 16.0.3, SVG Export Plug-In . SVG Version: 6.00 Build 0)  -->
<!DOCTYPE svg PUBLIC "-//W3C//DTD SVG 1.1//EN" "http://www.w3.org/Graphics/SVG/1.1/DTD/svg11.dtd" [
	<!ENTITY ns_flows "http://ns.adobe.com/Flows/1.0/">
	<!ENTITY ns_extend "http://ns.adobe.com/Extensibility/1.0/">
	<!ENTITY ns_ai "http://ns.adobe.com/AdobeIllustrator/10.0/">
	<!ENTITY ns_graphs "http://ns.adobe.com/Graphs/1.0/">
]>
<svg version="1.1" id="Layer_1" xmlns:x="&ns_extend;" xmlns:i="&ns_ai;" xmlns:graph="&ns_graphs;"
	 xmlns="http://www.w3.org/2000/svg" xmlns:xlink="http://www.w3.org/1999/xlink" xmlns:a="http://ns.adobe.com/AdobeSVGViewerExtensions/3.0/"
	 x="0px" y="0px" width="24.01px" height="24.01px" viewBox="0 0 24.01 24.01" enable-background="new 0 0 24.01 24.01"
	 xml:space="preserve">
<g>
	<polygon fill="#010101" points="21.193,7.362 21.492,7.123 21.007,5.778 20.062,8.166 	"/>
	<path fill="#010101" d="M12.448,22.405h6.73V9.212h-6.73V22.405z M15.813,14.014c1.234,0,2.236,0.545,2.236,1.22
		c0,0.671-1.002,1.217-2.236,1.217s-2.237-0.546-2.237-1.217C13.576,14.561,14.579,14.014,15.813,14.014z"/>
	<rect x="13.81" y="4.005" fill="#010101" width="6.732" height="1.214"/>
	<polygon fill="#010101" points="13.721,5.774 12.58,8.655 19.269,8.655 20.411,5.774 	"/>
	<polygon fill="#010101" points="19.736,9.078 19.736,22.104 21.604,20.604 21.604,7.753 	"/>
</g>
<path fill="#ED2224" stroke="#ED2224" stroke-width="0.5" stroke-miterlimit="10" d="M9.73,17.586c-1.104-1.103-2.895-1.103-3.996,0
	c-1.103,1.102-1.103,2.893,0,3.994s2.894,1.102,3.996,0C10.832,20.479,10.832,18.688,9.73,17.586z M9.46,17.854
	c0.907,0.906,0.95,2.355,0.13,3.314l-3.444-3.443C7.104,16.903,8.553,16.946,9.46,17.854z M6.005,21.311
	c-0.907-0.908-0.95-2.354-0.13-3.313l3.444,3.442C8.36,22.26,6.912,22.217,6.005,21.311z"/>
</svg>
