<?xml version="1.0" encoding="utf-8"?>
<!-- Svg Vector Icons : http://www.onlinewebfonts.com/icon -->
<!DOCTYPE svg PUBLIC "-//W3C//DTD SVG 1.1//EN" "http://www.w3.org/Graphics/SVG/1.1/DTD/svg11.dtd">
<svg version="1.1" xmlns="http://www.w3.org/2000/svg" xmlns:xlink="http://www.w3.org/1999/xlink" x="0px" y="0px" viewBox="0 0 1000 1000" enable-background="new 0 0 1000 1000" xml:space="preserve">
<metadata> Svg Vector Icons : http://www.onlinewebfonts.com/icon </metadata>
<g><g transform="translate(0.000000,511.000000) scale(0.100000,-0.100000)"><path d="M8295.4,4682.1c-143.6-35.9-265.6-107.7-361.3-215.3c-110-122-129.2-172.3-169.9-442.6c-40.7-265.6-90.9-435.5-181.8-619.7c-272.8-547.9-746.5-835-1816-1095.8l-394.8-95.7l-227.3,38.3c-825.4,134-1598.2,16.7-2356.7-356.5c-744.1-363.7-1366.2-961.8-1665.2-1603C928.6-122.2,873.6-483.5,892.7-1237.2c14.4-598.1,59.8-849.4,205.8-1155.6c174.7-366.1,468.9-576.6,942.7-681.9c215.3-47.9,277.6-50.2,2947.7-43.1c3055.3,4.8,2847.2-7.2,3158.2,179.4c614.9,368.5,1004.9,1304,918.8,2208.3c-26.3,282.3-33.5,320.6-110.1,579C8769.1,483.1,8360,949.6,7855.1,1098c-95.7,28.7-174.6,59.8-174.6,71.8c0,9.6,47.9,126.8,105.3,263.2c232.1,543.1,466.6,866.1,729.7,997.7c86.1,45.4,134,50.2,509.6,43.1c385.2-4.8,421.1,0,509.6,47.9c201,107.7,337.3,315.8,361.3,552.7c40.7,385.2-232.1,729.7-619.7,784.8c-93.3,12-107.7,21.5-86.2,47.9c40.7,50.2,9.6,248.8-59.8,385.2C8977.2,4593.6,8615.9,4761,8295.4,4682.1z M8627.9,4277.8c55-23.9,117.2-69.4,138.8-100.5c86.1-126.8,69.4-311-43.1-447.4c-76.5-88.5-95.7-165.1-62.2-241.6c26.3-67,110-122,184.2-122c23.9,0,81.3,28.7,129.2,62.2c294.3,203.4,674.7-107.7,512-421.1c-86.1-165.1-196.2-193.8-547.9-143.6c-531.1,76.6-992.9-248.8-1351.8-957c-265.6-519.2-473.7-1162.8-634-1952.3c-47.9-227.3-102.9-457-124.4-514.4c-107.7-275.1-370.8-559.9-636.4-689.1c-413.9-203.4-856.5-179.4-1270.5,69.4c-174.7,105.3-270.4,119.6-354.1,50.3c-69.4-57.4-74.2-193.8-9.6-268c71.8-76.6,339.8-227.3,509.6-284.7c727.4-241.7,1531.3,33.5,1954.7,669.9C7168.4-792.1,7245-581.6,7312-198.8c33.5,177.1,102.9,471.3,157.9,653.2L7570.4,787l93.3-14.3c409.1-67,803.9-535.9,961.8-1150.8c191.4-736.9-38.3-1710.7-497.7-2107.9c-105.3-88.5-320.6-208.2-423.5-232.1c-33.5-7.2-1253.7-16.8-2715.6-19.1c-2907-4.8-2856.7-7.2-3165.4,134c-299.1,136.4-430.7,366.1-521.6,899.6c-31.1,196.2-38.3,339.7-26.3,748.9c14.4,567,47.9,746.5,196.2,1062.3c272.8,576.6,880.5,1153.2,1550.4,1473.8c390,186.6,937.9,337.4,1160.4,320.6l102.9-7.2l-220.1-143.6c-409.2-268-701-646-789.6-1016.8c-69.4-296.7-19.1-696.2,131.6-1033.6c93.3-210.5,224.9-263.2,349.3-138.8c64.6,64.6,59.8,157.9-12,306.2c-220.1,457-153.1,916.4,189,1289.6c220.1,241.6,593.4,466.6,923.5,555.1c98.1,26.3,411.5,98.1,693.8,155.5c1055.1,222.5,1528.9,416.3,1930.8,789.6c373.2,346.9,579,751.2,658,1294.4c33.5,227.3,81.3,303.9,220.1,344.5C8472.4,4330.4,8520.2,4325.6,8627.9,4277.8z"/><path d="M155.8-3392.9c-71.8-69.4-71.8-88.5-14.3-375.6c69.4-349.3,153.1-473.7,394.8-598.1c232.1-119.6,59.8-114.8,4505.2-114.8c4012.4,0,4170.3,2.4,4311.4,45.5c198.6,62.2,320.6,165.1,409.1,344.5c100.5,205.8,153.1,526.4,105.3,650.8c-43.1,112.5,172.2,107.7-4902.4,107.7H213.2L155.8-3392.9z M9451-3804.4c0-131.6-74.2-239.3-184.2-268c-62.2-19.1-1399.7-26.3-4242.1-26.3c-3849.7,2.4-4160.7,4.8-4268.4,43.1c-131.6,45.5-193.8,117.2-217.7,251.2l-14.3,88.5h4464.6H9451V-3804.4z"/></g></g>
</svg>