<?xml version="1.0" encoding="iso-8859-1"?>
<!-- Generator: Adobe Illustrator 19.0.0, SVG Export Plug-In . SVG Version: 6.00 Build 0)  -->
<svg version="1.1" id="Capa_1" xmlns="http://www.w3.org/2000/svg" xmlns:xlink="http://www.w3.org/1999/xlink" x="0px" y="0px"
	 viewBox="0 0 24.01 24.01" style="enable-background:new 0 0 24.01 24.01;" xml:space="preserve">
<g>
	<path d="M166.203,336.509l-80.246,80.245c-1.407,1.407-2.197,3.314-2.197,5.304c0,1.229,0.302,2.428,0.864,3.495v17.646
		c0,4.326-1.685,8.394-4.743,11.452c-3.059,3.059-7.126,4.743-11.453,4.743c-4.326,0-8.393-1.685-11.452-4.743
		c-3.059-3.059-4.743-7.126-4.743-11.452v-13.504c0-4.143-3.358-7.5-7.5-7.5H31.229c-8.93,0-16.196-7.266-16.196-16.195
		c0-8.931,7.266-16.196,16.196-16.196H48.87c2.833,1.494,6.42,1.05,8.803-1.332l80.244-80.244c2.929-2.93,2.929-7.678,0-10.607
		c-2.929-2.928-7.678-2.928-10.606,0l-77.183,77.184H31.229c-17.202,0-31.196,13.994-31.196,31.196
		c0,17.201,13.994,31.195,31.196,31.195h6.004v6.004c0,8.333,3.245,16.167,9.137,22.059c5.893,5.893,13.727,9.138,22.059,9.137
		c8.333,0,16.167-3.245,22.059-9.137s9.137-13.726,9.137-22.059V424.3l77.185-77.184c2.929-2.93,2.929-7.678,0-10.607
		C173.88,333.581,169.131,333.581,166.203,336.509z"/>
	<path d="M432.69,41.737C405.775,14.823,369.99,0,331.927,0s-73.848,14.823-100.763,41.737
		c-46.391,46.391-96.021,229.636-98.11,237.414c-0.59,2.195-0.152,4.54,1.19,6.374c1.342,1.835,3.443,2.962,5.714,3.064
		l16.734,0.757l2.178,19.59c0.388,3.485,3.14,6.237,6.626,6.625l19.586,2.177l0.755,16.729c0.102,2.271,1.229,4.373,3.064,5.715
		c1.299,0.95,2.853,1.447,4.429,1.447c0.65,0,1.305-0.085,1.946-0.257c7.778-2.09,191.022-51.72,237.414-98.109
		C488.251,187.702,488.251,97.299,432.69,41.737z M422.083,232.656c-38.004,38.005-183.814,81.021-221.686,91.726l-0.62-13.728
		c-0.166-3.689-2.994-6.708-6.664-7.116l-19.999-2.223l-2.223-20c-0.408-3.67-3.426-6.496-7.115-6.663l-13.732-0.621
		c10.701-37.869,53.711-183.673,91.726-221.687C265.852,28.263,297.87,15,331.927,15s66.075,13.263,90.156,37.345
		C471.795,102.057,471.795,182.944,422.083,232.656z"/>
	<path d="M273.237,83.811c2.924-2.924,2.924-7.682,0-10.606c-2.924-2.924-7.682-2.924-10.607,0c-2.924,2.924-2.924,7.682,0,10.606
		C265.555,86.735,270.313,86.735,273.237,83.811z"/>
	<path d="M266.168,257.05c-2.924,2.924-2.924,7.682,0,10.607c2.924,2.924,7.682,2.924,10.607,0c2.924-2.924,2.924-7.683,0-10.607
		S269.092,254.125,266.168,257.05z"/>
	<path d="M268.994,109.267c-2.924,2.924-2.924,7.682,0,10.606c2.924,2.924,7.682,2.924,10.607,0c2.924-2.924,2.924-7.682,0-10.606
		C276.677,106.342,271.919,106.342,268.994,109.267z"/>
	<path d="M326.624,46.809c-2.924,2.924-2.924,7.682,0,10.607c2.924,2.924,7.682,2.924,10.607,0c2.924-2.924,2.924-7.683,0-10.607
		S329.548,43.885,326.624,46.809z"/>
</g>
<g>
</g>
<g>
</g>
<g>
</g>
<g>
</g>
<g>
</g>
<g>
</g>
<g>
</g>
<g>
</g>
<g>
</g>
<g>
</g>
<g>
</g>
<g>
</g>
<g>
</g>
<g>
</g>
<g>
</g>
</svg>
