<?xml version="1.0" encoding="utf-8"?>
<!-- Generator: Adobe Illustrator 16.0.3, SVG Export Plug-In . SVG Version: 6.00 Build 0)  -->
<!DOCTYPE svg PUBLIC "-//W3C//DTD SVG 1.1//EN" "http://www.w3.org/Graphics/SVG/1.1/DTD/svg11.dtd">
<svg version="1.1" id="Layer_1" xmlns="http://www.w3.org/2000/svg" xmlns:xlink="http://www.w3.org/1999/xlink" x="0px" y="0px"
	 width="24.01px" height="24.01px" viewBox="0 0 24.01 24.01" enable-background="new 0 0 24.01 24.01" xml:space="preserve">
<g>
	<path fill="#ED2224" stroke="#ED2224" stroke-width="0.5" stroke-miterlimit="10" d="M8.479,17.585
		c-1.103-1.104-2.894-1.104-3.996,0c-1.102,1.102-1.102,2.895,0,3.995c1.104,1.103,2.895,1.103,3.996,0S9.58,18.687,8.479,17.585z
		 M8.208,17.854c0.907,0.906,0.95,2.355,0.13,3.314l-3.444-3.443C5.853,16.903,7.3,16.946,8.208,17.854z M4.752,21.312
		c-0.907-0.908-0.95-2.354-0.13-3.314l3.444,3.443C7.108,22.26,5.659,22.217,4.752,21.312z"/>
	<path d="M20.354,14.737c0-6.062-3.22-11.069-4.772-12.296V2.42c-0.005,0.003-0.01,0.008-0.013,0.011
		c-0.005-0.003-0.01-0.008-0.013-0.011v0.021c-1.555,1.227-4.775,6.234-4.775,12.296c0,3.655,1.252,7.753,4.775,7.773l0,0
		c0.003,0,0.008,0,0.013,0c0.003,0,0.008,0,0.013,0l0,0C19.103,22.49,20.354,18.393,20.354,14.737z"/>
</g>
</svg>
