<?xml version="1.0" encoding="utf-8"?>
<!-- Generator: Adobe Illustrator 16.0.3, SVG Export Plug-In . SVG Version: 6.00 Build 0)  -->
<!DOCTYPE svg PUBLIC "-//W3C//DTD SVG 1.1//EN" "http://www.w3.org/Graphics/SVG/1.1/DTD/svg11.dtd" [
	<!ENTITY ns_flows "http://ns.adobe.com/Flows/1.0/">
	<!ENTITY ns_extend "http://ns.adobe.com/Extensibility/1.0/">
	<!ENTITY ns_ai "http://ns.adobe.com/AdobeIllustrator/10.0/">
	<!ENTITY ns_graphs "http://ns.adobe.com/Graphs/1.0/">
]>
<svg version="1.1" id="Layer_1" xmlns:x="&ns_extend;" xmlns:i="&ns_ai;" xmlns:graph="&ns_graphs;"
	 xmlns="http://www.w3.org/2000/svg" xmlns:xlink="http://www.w3.org/1999/xlink" xmlns:a="http://ns.adobe.com/AdobeSVGViewerExtensions/3.0/"
	 x="0px" y="0px" width="42.52px" height="42.52px" viewBox="0 0 42.52 42.52" enable-background="new 0 0 42.52 42.52"
	 xml:space="preserve">
<g>
	<path fill="#010101" d="M16.813,36.477c0.203-0.042,0.523-0.074,0.85-0.074c0.464,0,0.763,0.08,0.987,0.262
		c0.187,0.139,0.299,0.353,0.299,0.636c0,0.347-0.229,0.65-0.608,0.79v0.011c0.342,0.085,0.741,0.368,0.741,0.902
		c0,0.31-0.122,0.544-0.304,0.721c-0.252,0.229-0.657,0.336-1.244,0.336c-0.32,0-0.566-0.021-0.721-0.042V36.477L16.813,36.477z
		 M17.278,37.95H17.7c0.491,0,0.778-0.256,0.778-0.603c0-0.423-0.319-0.588-0.79-0.588c-0.213,0-0.335,0.017-0.41,0.032V37.95z
		 M17.278,39.676c0.091,0.016,0.224,0.021,0.39,0.021c0.479,0,0.923-0.176,0.923-0.698c0-0.492-0.421-0.694-0.928-0.694h-0.385
		V39.676z"/>
	<path fill="#010101" d="M19.708,36.477c0.204-0.042,0.523-0.074,0.85-0.074c0.465,0,0.764,0.08,0.988,0.262
		c0.187,0.139,0.299,0.353,0.299,0.636c0,0.347-0.229,0.65-0.608,0.79v0.011c0.342,0.085,0.741,0.368,0.741,0.902
		c0,0.31-0.122,0.544-0.304,0.721c-0.251,0.229-0.656,0.336-1.244,0.336c-0.32,0-0.566-0.021-0.722-0.042V36.477L19.708,36.477z
		 M20.174,37.95h0.422c0.491,0,0.778-0.256,0.778-0.603c0-0.423-0.319-0.588-0.79-0.588c-0.213,0-0.336,0.017-0.41,0.032V37.95z
		 M20.174,39.676c0.09,0.016,0.224,0.021,0.39,0.021c0.479,0,0.923-0.176,0.923-0.698c0-0.492-0.422-0.694-0.929-0.694h-0.384
		V39.676z"/>
	<path fill="#010101" d="M25.573,40.557c-0.486-0.129-0.961-0.272-1.378-0.417c-0.075-0.026-0.149-0.054-0.22-0.054
		c-0.854-0.031-1.585-0.662-1.585-1.82c0-1.153,0.704-1.896,1.677-1.896c0.978,0,1.612,0.759,1.612,1.82
		c0,0.924-0.427,1.518-1.025,1.726v0.021c0.358,0.091,0.748,0.177,1.052,0.23L25.573,40.557z M25.188,38.212
		c0-0.72-0.374-1.462-1.139-1.462c-0.784,0-1.168,0.726-1.162,1.505c-0.006,0.764,0.416,1.453,1.142,1.453
		C24.771,39.708,25.188,39.035,25.188,38.212z"/>
</g>
<g>
	<path fill="#010101" d="M27.363,30.182c-1.255,0-2.356-0.839-2.702-2.027h-9.112l-0.372,1.033c-0.142,0.396-0.608,0.62-1.009,0.473
		c-0.197-0.07-0.354-0.215-0.445-0.405c-0.089-0.191-0.099-0.405-0.027-0.603l2.789-7.742c-2.124-1.494-3.417-3.882-3.505-6.472
		h-0.638v-2.414h17.78v2.414h-0.638c-0.089,2.63-1.412,5.039-3.588,6.529l1.291,3.591c0.058-0.003,0.116-0.005,0.176-0.005
		c1.552,0,2.814,1.263,2.814,2.814C30.178,28.919,28.915,30.182,27.363,30.182z M15.148,27.585h9.97l0.046,0.229
		c0.21,1.042,1.135,1.799,2.199,1.799c1.237,0,2.245-1.008,2.245-2.244c0-1.239-1.008-2.245-2.245-2.245
		c-0.111,0-0.22,0.009-0.328,0.023l-0.229,0.033l-1.599-4.442l0.19-0.124c2.205-1.424,3.522-3.839,3.522-6.461v-0.285h0.632v-1.273
		h-16.64v1.273h0.634v0.285c0,2.583,1.286,4.978,3.44,6.409l0.187,0.124l-2.94,8.16c-0.02,0.056-0.017,0.114,0.008,0.166
		c0.024,0.053,0.068,0.093,0.123,0.112c0.122,0.043,0.238-0.021,0.278-0.131L15.148,27.585z"/>
	<path fill="#010101" d="M25.118,27.149h-9.811l2.247-6.238l0.286,0.141c2.09,1.03,4.594,1.047,6.701,0.042l0.283-0.135l1.575,4.368
		L26.2,25.448c-0.534,0.325-0.912,0.862-1.035,1.472L25.118,27.149z M16.118,26.579h8.544c0.174-0.596,0.543-1.121,1.046-1.487
		L24.5,21.738c-2.098,0.904-4.542,0.89-6.624-0.04L16.118,26.579z"/>
	<path fill="#010101" d="M27.363,28.908c-0.849,0-1.54-0.691-1.54-1.54c0-0.85,0.691-1.541,1.54-1.541
		c0.85,0,1.541,0.691,1.541,1.541C28.904,28.217,28.213,28.908,27.363,28.908z M27.363,26.396c-0.535,0-0.971,0.436-0.971,0.972
		c0,0.534,0.436,0.97,0.971,0.97s0.971-0.436,0.971-0.97C28.334,26.832,27.898,26.396,27.363,26.396z"/>
	<path fill="#010101" d="M21.736,10.873c-0.01,0-0.02,0-0.028-0.001c-0.804-0.083-2.356-0.634-2.486-2.129
		c-0.083-0.962,0.692-1.566,1.443-2.151C21.402,6.016,22.1,5.472,22.1,4.617c0-1.688-1.979-2.09-1.999-2.094
		c-0.155-0.03-0.256-0.179-0.226-0.333c0.029-0.155,0.18-0.258,0.333-0.226c0.852,0.165,2.461,0.932,2.461,2.654
		c0,1.134-0.88,1.819-1.656,2.424c-0.687,0.536-1.281,0.999-1.225,1.652c0.123,1.396,1.902,1.604,1.978,1.611
		c0.156,0.017,0.271,0.157,0.253,0.313C22.004,10.764,21.881,10.873,21.736,10.873z"/>
	<path fill="#010101" d="M26.315,9.555c-0.011,0-0.021,0-0.031,0c-0.653-0.068-1.92-0.52-2.026-1.746
		c-0.069-0.796,0.56-1.287,1.168-1.761C26,5.599,26.544,5.176,26.544,4.524c0-1.286-1.48-1.594-1.543-1.606
		c-0.155-0.031-0.255-0.181-0.225-0.335c0.029-0.154,0.177-0.256,0.333-0.225c0.693,0.134,2.004,0.759,2.004,2.166
		c0,0.929-0.711,1.483-1.338,1.973c-0.532,0.415-0.992,0.774-0.95,1.262c0.094,1.068,1.504,1.226,1.519,1.228
		c0.156,0.017,0.27,0.157,0.254,0.313C26.582,9.446,26.459,9.555,26.315,9.555z"/>
	<path fill="#010101" d="M17.122,10.018c-0.01,0-0.02-0.001-0.03-0.002c-0.655-0.067-1.921-0.52-2.027-1.746
		c-0.07-0.796,0.56-1.286,1.168-1.76c0.575-0.448,1.118-0.872,1.118-1.523c0-1.294-1.526-1.605-1.542-1.608
		c-0.155-0.03-0.256-0.179-0.225-0.333c0.03-0.155,0.181-0.256,0.334-0.226c0.692,0.135,2.002,0.76,2.002,2.167
		c0,0.929-0.71,1.483-1.337,1.973c-0.533,0.415-0.993,0.773-0.95,1.261c0.092,1.068,1.503,1.227,1.518,1.228
		c0.156,0.017,0.271,0.157,0.254,0.313C17.389,9.909,17.266,10.018,17.122,10.018z"/>
</g>
</svg>
