<?xml version="1.0" encoding="utf-8"?>
<!-- Generator: Adobe Illustrator 16.0.3, SVG Export Plug-In . SVG Version: 6.00 Build 0)  -->
<!DOCTYPE svg PUBLIC "-//W3C//DTD SVG 1.1//EN" "http://www.w3.org/Graphics/SVG/1.1/DTD/svg11.dtd" [
	<!ENTITY ns_flows "http://ns.adobe.com/Flows/1.0/">
	<!ENTITY ns_extend "http://ns.adobe.com/Extensibility/1.0/">
	<!ENTITY ns_ai "http://ns.adobe.com/AdobeIllustrator/10.0/">
	<!ENTITY ns_graphs "http://ns.adobe.com/Graphs/1.0/">
]>
<svg version="1.1" id="Layer_1" xmlns:x="&ns_extend;" xmlns:i="&ns_ai;" xmlns:graph="&ns_graphs;"
	 xmlns="http://www.w3.org/2000/svg" xmlns:xlink="http://www.w3.org/1999/xlink" xmlns:a="http://ns.adobe.com/AdobeSVGViewerExtensions/3.0/"
	 x="0px" y="0px" width="42.52px" height="42.52px" viewBox="0 0 42.52 42.52" enable-background="new 0 0 42.52 42.52"
	 xml:space="preserve">
<g>
	<path fill="#010101" d="M11.765,36.434h2.116v0.426h-1.609v1.307h1.487v0.419h-1.487v1.778h-0.507V36.434L11.765,36.434z"/>
	<path fill="#010101" d="M14.605,36.487c0.256-0.054,0.624-0.081,0.973-0.081c0.542,0,0.892,0.099,1.137,0.32
		c0.198,0.175,0.309,0.443,0.309,0.745c0,0.52-0.326,0.863-0.739,1.004v0.017c0.303,0.104,0.483,0.385,0.577,0.793
		c0.128,0.547,0.221,0.927,0.303,1.078h-0.525c-0.064-0.11-0.151-0.448-0.262-0.938c-0.116-0.542-0.327-0.746-0.787-0.763h-0.477
		v1.701h-0.507V36.487z M15.113,38.277h0.518c0.542,0,0.886-0.298,0.886-0.747c0-0.508-0.367-0.729-0.903-0.734
		c-0.246,0-0.42,0.023-0.501,0.047V38.277z"/>
	<path fill="#010101" d="M19.778,38.521H18.25v1.416h1.702v0.426h-2.209v-3.929h2.121v0.426H18.25v1.241h1.527V38.521L19.778,38.521
		z"/>
	<path fill="#010101" d="M20.613,40.363v-3.929h0.554l1.259,1.988c0.291,0.46,0.518,0.875,0.705,1.275l0.012-0.005
		c-0.047-0.524-0.059-1.002-0.059-1.614v-1.645h0.479v3.929h-0.514l-1.247-1.993c-0.273-0.438-0.536-0.886-0.734-1.312l-0.018,0.005
		c0.029,0.496,0.041,0.969,0.041,1.62v1.68H20.613L20.613,40.363z"/>
	<path fill="#010101" d="M27.195,40.235c-0.186,0.094-0.559,0.187-1.037,0.187c-1.107,0-1.941-0.699-1.941-1.988
		c0-1.229,0.834-2.063,2.053-2.063c0.49,0,0.799,0.104,0.932,0.176l-0.123,0.413c-0.191-0.094-0.465-0.163-0.791-0.163
		c-0.922,0-1.533,0.588-1.533,1.621c0,0.963,0.555,1.579,1.51,1.579c0.309,0,0.623-0.064,0.828-0.164L27.195,40.235z"/>
	<path fill="#010101" d="M28.34,36.434v1.645h1.9v-1.645h0.514v3.93H30.24v-1.843h-1.9v1.843h-0.508v-3.93H28.34z"/>
</g>
<g>
	<path fill="#010101" d="M4.449,16.676l-0.161-0.171c-1.258-1.914-1.907-4.338-1.735-6.486c0.142-1.754,0.812-2.087,2-2.087
		c0.156,0,0.328,0.006,0.514,0.021C6.009,8.029,7.713,8.724,9.308,9.68l0.446,0.267l-0.439,0.279
		C8.404,10.805,7.306,12,6.378,13.422c-0.324,0.498-1.112,1.784-1.436,2.982l-0.06,0.219L4.449,16.676z M4.554,8.573
		c-0.9,0-1.25,0.129-1.361,1.498c-0.146,1.825,0.343,3.867,1.32,5.574c0.4-1.09,1.04-2.13,1.328-2.573
		c0.84-1.288,1.824-2.406,2.709-3.091c-1.368-0.77-2.775-1.327-3.534-1.389C4.85,8.58,4.694,8.573,4.554,8.573z"/>
	<path fill="#010101" d="M12.116,23.867l-0.111-0.03c-3.422-1.616-6.171-4.078-6.841-6.125c-0.3-0.916,0.604-2.792,1.47-4.12
		c1.144-1.756,2.496-3.091,3.444-3.402c0.69-0.227,2.297-0.084,4.157,0.368l0.078,0.019l0.287,0.229l-0.104,0.283
		c-0.754,1.247-1.546,3.778-1.971,6.298c-0.246,1.457-0.578,4.183-0.037,6.069l0.112,0.389L12.116,23.867z M10.997,10.722
		c-0.419,0-0.629,0.049-0.717,0.078c-0.793,0.26-2.07,1.552-3.107,3.142c-1.11,1.703-1.549,3.11-1.398,3.571
		c0.573,1.751,2.979,3.948,5.946,5.469c-0.338-1.818-0.105-4.06,0.172-5.703c0.402-2.38,1.131-4.785,1.86-6.176
		C12.67,10.856,11.701,10.722,10.997,10.722z"/>
	<path fill="#010101" d="M21.261,26.521c-3.61,0-6.665-0.723-7.782-1.841c-1.019-1.019-1.256-3.658-0.651-7.243
		c0.558-3.302,1.591-5.974,2.267-6.649c0.656-0.658,3.134-1.1,6.165-1.1s5.509,0.442,6.166,1.101
		c0.676,0.675,1.707,3.346,2.266,6.648c0.605,3.585,0.369,6.225-0.65,7.243C27.923,25.798,24.869,26.521,21.261,26.521z
		 M21.259,10.329c-3.312,0-5.333,0.534-5.71,0.913c-0.516,0.515-1.528,2.992-2.087,6.302c-0.554,3.278-0.373,5.839,0.472,6.684
		c0.972,0.973,3.985,1.652,7.328,1.652c3.341,0,6.354-0.68,7.326-1.652c0.845-0.845,1.024-3.405,0.471-6.684
		c-0.56-3.31-1.571-5.786-2.088-6.302C26.593,10.862,24.571,10.329,21.259,10.329z"/>
	<path fill="#010101" d="M30.419,23.881l-0.46-0.173l0.081-0.292c0.527-1.886,0.197-4.588-0.046-6.031
		c-0.43-2.549-1.229-5.095-1.991-6.334l-0.764-1.246l1.104,0.736c1.83-0.44,3.408-0.579,4.098-0.353
		c0.947,0.311,2.301,1.646,3.445,3.401c0.865,1.328,1.77,3.204,1.471,4.121c-0.666,2.036-3.4,4.489-6.805,6.106L30.419,23.881z
		 M28.769,11.101c0.729,1.395,1.457,3.792,1.859,6.177c0.275,1.638,0.51,3.881,0.172,5.702c2.967-1.521,5.373-3.721,5.945-5.469
		c0.15-0.461-0.287-1.869-1.398-3.571c-1.037-1.59-2.314-2.883-3.105-3.143c-0.088-0.029-0.299-0.077-0.719-0.077
		C30.817,10.721,29.85,10.855,28.769,11.101z"/>
	<path fill="#010101" d="M37.757,16.837l-0.164-0.382c-0.326-1.25-1.193-2.637-1.451-3.032c-0.928-1.422-2.025-2.617-2.938-3.197
		l-0.438-0.278l0.445-0.268c1.594-0.958,3.299-1.652,4.24-1.728c0.186-0.015,0.357-0.021,0.514-0.021c1.189,0,1.859,0.333,2,2.087
		c0.174,2.15-0.477,4.578-1.74,6.495l-0.1,0.097L37.757,16.837z M33.97,9.982c0.887,0.686,1.871,1.803,2.709,3.09
		c0.291,0.445,0.928,1.481,1.328,2.571c0.979-1.707,1.467-3.749,1.32-5.573c-0.109-1.368-0.461-1.498-1.361-1.498
		c-0.141,0-0.297,0.006-0.463,0.019C36.743,8.654,35.337,9.211,33.97,9.982z"/>
</g>
</svg>
